<svg width="181" height="181" viewBox="0 0 181 181" fill="none" xmlns="http://www.w3.org/2000/svg">
<path d="M153.605 27.2213C136.688 10.3596 114.221 1.07308 90.3297 1.07308C66.388 1.07308 43.8808 10.3986 26.952 27.3273C10.0232 44.2561 0.697725 66.7634 0.697725 90.7051C0.697725 114.647 10.0232 137.158 26.952 154.086C43.8808 171.015 66.3916 180.341 90.3333 180.341C114.275 180.341 136.786 171.015 153.715 154.086C170.643 137.158 179.969 114.647 179.969 90.7051C179.969 66.7634 170.643 44.2525 153.715 27.3237L153.609 27.2176L153.605 27.2213ZM152.883 153.47C136.16 170.138 113.95 179.317 90.3333 179.317C66.6666 179.317 44.4129 170.099 27.6779 153.364C10.9428 136.629 1.72137 114.375 1.72137 90.7051C1.72137 67.0347 10.9392 44.7847 27.6743 28.0496C44.4093 11.3146 66.663 2.09673 90.3297 2.09673C113.996 2.09673 136.25 11.3146 152.985 28.0496C169.72 44.7847 178.938 67.0383 178.938 90.7051C178.938 114.372 169.72 136.625 152.985 153.361L152.879 153.467L152.883 153.47Z" fill="#C44F10" stroke="#C44F10" stroke-width="0.3"/>
<path d="M105.188 173.345V173.525L105.365 173.493C105.581 173.453 105.797 173.411 106.013 173.369C106.056 173.36 106.098 173.352 106.141 173.344L106.238 173.325L106.259 173.229L113.029 142.38L113.069 142.198H112.882H112.14H112.02L111.994 142.316L105.192 173.309L105.188 173.325V173.341V173.345Z" fill="#C44F10" stroke="#C44F10" stroke-width="0.3"/>
<path d="M114.599 130.448L114.595 130.464V130.48V133.856L114.892 133.888L128.178 73.3336L128.288 72.833L127.925 73.1954L126.977 74.1434L126.946 74.1744L126.937 74.2173L114.599 130.448Z" fill="#C44F10" stroke="#C44F10" stroke-width="0.3"/>
<path d="M63.6101 170.306L63.517 170.465L63.6914 170.524C63.8495 170.577 64.0087 170.628 64.1664 170.678C64.2444 170.703 64.322 170.728 64.399 170.752L64.5136 170.789L64.5745 170.685L81.1387 142.424L81.271 142.198H81.0093H80.1698H80.0839L80.0404 142.272L63.6101 170.306Z" fill="#C44F10" stroke="#C44F10" stroke-width="0.3"/>
<path d="M28.5902 147.849V147.528L36.6266 140.387L36.6769 140.342V140.275V139.309V138.975L36.4273 139.196L27.8521 146.816L27.7382 146.918L27.8413 147.03C27.9224 147.118 28.0036 147.208 28.085 147.297C28.1664 147.387 28.248 147.476 28.3298 147.565L28.5902 147.849Z" fill="#C44F10" stroke="#C44F10" stroke-width="0.3"/>
<path d="M8.47856 109.702H8.50993L8.53868 109.69L36.587 97.4204L36.6769 97.3811V97.283V96.4942V96.2649L36.4668 96.3568L8.25925 108.695L8.1456 108.745L8.17309 108.866C8.19992 108.984 8.225 109.103 8.25037 109.223L8.25049 109.224C8.27573 109.344 8.30127 109.465 8.32867 109.586L8.35521 109.702H8.47494H8.47856Z" fill="#C44F10" stroke="#C44F10" stroke-width="0.3"/>
<path d="M114.595 57.2547V57.6168L114.851 57.3608L115.579 56.6335L115.876 56.3366L115.458 56.3782L114.731 56.4505L114.595 56.464V56.5998V57.2547Z" fill="#C44F10" stroke="#C44F10" stroke-width="0.3"/>
<path d="M9.54951 67.8324H9.55688L9.56421 67.8317L36.5416 65.1759L36.6769 65.1626V65.0266V64.2994V64.1339L36.5122 64.1501L9.75553 66.7841L9.65443 66.7941L9.62615 66.8917C9.5903 67.0154 9.5526 67.1392 9.51456 67.2642L9.51441 67.2647C9.47652 67.3892 9.43829 67.5148 9.40183 67.6406L9.34624 67.8324H9.5459H9.54951Z" fill="#C44F10" stroke="#C44F10" stroke-width="0.3"/>
<path d="M59.4499 39.0624V38.9417L59.3321 38.9158L29.7604 32.4284L29.6785 32.4104L29.6203 32.4708C29.424 32.6744 29.2314 32.8815 29.04 33.0874L29.0395 33.0879L28.8607 33.2802L29.1172 33.3365L55.892 39.2125L55.9079 39.216H55.9241H59.2999H59.4499V39.066V39.0624Z" fill="#C44F10" stroke="#C44F10" stroke-width="0.3"/>
<path d="M119.79 52.4219L119.984 52.2282L119.716 52.1694L114.778 51.0839L114.595 51.0438V51.2304V51.9721V52.0927L114.713 52.1186L119.044 53.0702L119.124 53.0878L119.182 53.0298L119.79 52.4219Z" fill="#C44F10" stroke="#C44F10" stroke-width="0.3"/>
<path d="M122.58 49.6323L122.717 49.495L122.55 49.3968L114.821 44.8668L114.595 44.7344V44.9962V45.8356V45.9216L114.67 45.9651L121.87 50.1839L121.97 50.2425L122.052 50.1605L122.58 49.6323Z" fill="#C44F10" stroke="#C44F10" stroke-width="0.3"/>
<path d="M104.625 39.2124H105.178L104.701 38.933L59.5314 12.4585L59.4682 12.4215L59.4001 12.4485C59.1807 12.5357 58.9632 12.6252 58.7455 12.7148C58.6822 12.7408 58.6189 12.7669 58.5555 12.7929L58.2753 12.9079L58.5366 13.0611L103.117 39.1918L103.152 39.2124H103.192H104.622H104.625Z" fill="#C44F10" stroke="#C44F10" stroke-width="0.3"/>
<path d="M124.845 47.3676L124.447 47.7653L124.334 47.8778L124.229 47.7589L87.8875 6.86222L87.6723 6.62007L87.9962 6.61262C88.3118 6.60536 88.6309 6.60174 88.949 6.59812L88.9495 6.59812L89.0179 6.59734L89.0633 6.64847L124.963 47.0494L124.855 47.1456M124.845 47.3676L124.855 47.1456M124.845 47.3676L124.957 47.2551L124.845 47.3677L124.845 47.3676ZM124.855 47.1456L124.961 47.2515L124.961 47.2514L124.855 47.1456ZM124.793 47.0838L88.9512 6.74811L124.793 47.0838Z" fill="#C44F10" stroke="#C44F10" stroke-width="0.3"/>
<path d="M127.454 44.7549L127.526 44.6825L127.485 44.5888L112.137 9.49573L112.108 9.42965L112.038 9.41096L112.037 9.4108C111.741 9.33129 111.444 9.25147 111.142 9.17523L110.845 9.10009L110.968 9.38076L126.66 45.2589L126.748 45.4603L126.904 45.3049L127.454 44.7549Z" fill="#C44F10" stroke="#C44F10" stroke-width="0.3"/>
<path d="M130.714 41.4986L130.764 41.4484L130.757 41.3778L128.224 15.6595L128.216 15.5771L128.142 15.5401C128.015 15.4767 127.887 15.4133 127.76 15.35L127.76 15.3499C127.632 15.2866 127.505 15.2234 127.379 15.1602L127.136 15.0387L127.162 15.309L129.796 42.0693L129.827 42.385L130.052 42.1607L130.714 41.4986Z" fill="#C44F10" stroke="#C44F10" stroke-width="0.3"/>
<path d="M139.347 22.4435L139.369 22.3467L139.288 22.2892C139.075 22.1373 138.86 21.9848 138.646 21.8359L138.462 21.708L138.414 21.9269L133.533 44.1681L133.515 44.2482L133.573 44.3063L134.181 44.9141L134.375 45.108L134.434 44.8402L139.347 22.4435Z" fill="#C44F10" stroke="#C44F10" stroke-width="0.3"/>
<path d="M136.638 47.3709L136.775 47.5082L136.874 47.3407L147.518 29.1773L147.579 29.0729L147.49 28.991C147.416 28.9229 147.34 28.8506 147.262 28.7772C147.158 28.6785 147.051 28.578 146.947 28.4835L146.81 28.3601L146.717 28.519L136.083 46.6571L136.024 46.7571L136.106 46.839L136.634 47.3673L136.634 47.3673L136.638 47.3709Z" fill="#C44F10" stroke="#C44F10" stroke-width="0.3"/>
<path d="M138.737 49.4694L138.837 49.5694L138.942 49.4755L154.07 36.0338L154.182 35.9347L154.083 35.8226C153.924 35.6416 153.765 35.4613 153.606 35.2774L153.507 35.1621L153.393 35.2632L138.229 48.7375L138.11 48.8431L138.223 48.9557L138.737 49.4694Z" fill="#C44F10" stroke="#C44F10" stroke-width="0.3"/>
<path d="M141.2 51.6686L159.78 43.5416L159.945 43.4693L159.844 43.32C159.706 43.1164 159.564 42.9129 159.422 42.7132L159.352 42.6136L159.24 42.6625L140.44 50.8867L140.238 50.9748L140.394 51.1302L140.944 51.6802L141.2 51.9363V51.6686Z" fill="#C44F10" stroke="#C44F10" stroke-width="0.3"/>
<path d="M143.934 54.6042H143.941L143.948 54.6035L165.079 52.523L165.298 52.5014L165.197 52.305C165.108 52.1321 165.017 51.9609 164.925 51.7898C164.894 51.7306 164.862 51.6715 164.831 51.6123L164.784 51.5235L164.684 51.5334L143.253 53.6428L142.937 53.6739L143.162 53.8981L143.824 54.5603L143.868 54.6042H143.93H143.934Z" fill="#C44F10" stroke="#C44F10" stroke-width="0.3"/>
<path d="M143.028 58.093L142.834 58.2868L143.102 58.3456L169.967 64.2396L170.226 64.2965L170.141 64.0451C170.051 63.7774 169.96 63.5094 169.87 63.2449L169.842 63.1651L169.76 63.147L143.774 57.4447L143.694 57.4271L143.636 57.4851L143.028 58.093Z" fill="#C44F10" stroke="#C44F10" stroke-width="0.3"/>
<path d="M140.332 60.7886L140.195 60.9259L140.363 61.024L173.599 80.5045L173.86 80.6572L173.824 80.3574C173.788 80.0521 173.748 79.7506 173.704 79.4457L173.694 79.3741L173.632 79.3375L141.042 60.237L140.943 60.1784L140.861 60.2603L140.332 60.7886Z" fill="#C44F10" stroke="#C44F10" stroke-width="0.3"/>
<path d="M137.775 63.3422H138.073L173.31 102.998L173.523 103.238L173.57 102.921C173.617 102.605 173.661 102.293 173.701 101.977L173.71 101.909L173.664 101.858L138.763 62.5788L138.657 62.4598L138.545 62.5723L138.031 63.0861L137.775 63.3422Z" fill="#C44F10" stroke="#C44F10" stroke-width="0.3"/>
<path d="M135.676 65.8732L164.054 130.757L164.177 131.037L164.324 130.769C164.41 130.611 164.495 130.448 164.578 130.287C164.638 130.173 164.696 130.06 164.755 129.95L164.789 129.886L164.76 129.819L136.411 65.0027L136.323 64.8013L136.168 64.9567L135.618 65.5067L135.695 65.5838L135.574 65.6092V65.6128V65.9749L135.676 65.8732Z" fill="#C44F10" stroke="#C44F10" stroke-width="0.3"/>
<path d="M132.47 68.6546L132.42 68.7047L132.427 68.7753L141.157 157.454L141.184 157.724L141.399 157.558C141.51 157.472 141.623 157.386 141.736 157.3L141.737 157.299C141.85 157.213 141.963 157.127 142.075 157.041L142.141 156.99L142.133 156.907L133.387 68.0838L133.356 67.7682L133.132 67.9924L132.47 68.6546Z" fill="#C44F10" stroke="#C44F10" stroke-width="0.3"/>
<mask id="path-26-outside-1_226_4478" maskUnits="userSpaceOnUse" x="38.2406" y="40.776" width="104" height="100" fill="black">
<rect fill="white" x="38.2406" y="40.776" width="104" height="100"/>
<path d="M134.559 62.9389L134.573 62.9245L135.109 62.389L136.335 61.1624L136.849 60.6486L138.021 59.4763L138.55 58.9481L139.99 57.508L140.598 56.9002L141.318 56.1801C141.386 56.1114 141.422 56.0209 141.422 55.9232C141.422 55.8255 141.383 55.7351 141.318 55.6663L140.442 54.7907L139.78 54.1286L138.383 52.732L137.833 52.182L136.813 51.1617L136.299 50.6479L135.326 49.6746L134.798 49.1463L133.596 47.9451L132.988 47.3372L130.995 45.3436C130.926 45.2748 130.836 45.2387 130.738 45.2387C130.64 45.2387 130.55 45.2785 130.481 45.3436L130.286 45.539L128.513 47.3119L127.963 47.8619L126.653 49.1717L126.139 49.6854L124.887 50.9373L124.359 51.4656L123.737 52.0879L122.825 52.9997L122.217 53.6076L121.558 54.2661L119.72 56.1041L119.384 56.4406L119.044 56.7808L118.914 56.911L116.869 58.9553L114.735 61.09L114.695 61.1298L112.614 63.2103L112.021 63.8037V42.1379C112.021 41.9389 111.858 41.776 111.659 41.776H39.6024C39.4034 41.776 39.2406 41.9389 39.2406 42.1379V139.272C39.2406 139.471 39.4034 139.634 39.6024 139.634H111.666C111.865 139.634 112.028 139.471 112.028 139.272V85.4659L114.742 82.7523L115.61 81.8839L117.636 79.8577L125.531 71.9628L127.706 69.7882L128.162 69.3323L129.11 68.3844L129.88 67.6137L130.22 67.2736L132.229 65.2655L132.395 65.099L132.891 64.6033L134.555 62.9389H134.559ZM129.37 67.0999L128.451 68.0189L127.453 69.0175L125.271 66.8358L124.743 66.3075L122.402 63.9665L121.888 63.4527L119.449 61.0141L118.899 60.4641L117.644 59.2086L119.561 57.2909L119.901 56.9508L120.053 56.7988L120.86 55.992L121.819 55.0332L122.608 55.8219L123.27 56.4841L124.71 57.9241L125.26 58.4741L126.313 59.527L126.827 60.0408L127.829 61.043L128.357 61.5713L129.595 62.8087L130.202 63.4166L131.628 64.8421L129.71 66.7598L129.399 67.0709L129.37 67.0999ZM119.087 77.3829L117.061 79.409L114.745 81.7247L112.032 84.4384L111.67 84.8002L111.308 85.162L108.594 87.8757L87.8114 108.659L85.8938 110.576L80.9875 105.67L78.3896 103.072L77.8758 102.558L76.0848 100.767L78.0025 98.8497L108.594 68.2577L111.308 65.5441L111.67 65.1822L112.032 64.8204L113.041 63.8109L114.445 62.4071L114.745 62.1068L115.216 61.6364L117.133 59.7187L118.186 60.7716L118.736 61.3216L121.345 63.9303L121.859 64.4441L124.363 66.9479L124.891 67.4762L126.939 69.5241L125.021 71.4417L119.087 77.3756V77.3829ZM111.308 89.2289V138.911H55.5225V42.4997H111.308V64.5273L111.221 64.6142L108.594 67.241L77.4923 98.3431L75.3467 100.489L75.3177 100.518C75.3177 100.518 75.3177 100.521 75.3141 100.525C75.2707 100.568 75.2381 100.615 75.22 100.677L74.3336 103.886L73.6642 106.31L73.3096 107.591L71.3268 114.77C71.2907 114.896 71.3268 115.03 71.4173 115.121C71.486 115.19 71.5801 115.229 71.6742 115.229C71.7068 115.229 71.7357 115.226 71.7683 115.218L82.7459 112.302L85.9806 111.445C85.9806 111.445 85.9878 111.445 85.9878 111.441C86.0132 111.434 86.0385 111.423 86.0602 111.412C86.0674 111.409 86.0711 111.405 86.0783 111.398C86.1 111.383 86.1253 111.372 86.1434 111.354L88.318 109.18L108.591 88.9068L111.304 86.1932V89.2325L111.308 89.2289ZM39.9642 137.221V42.4997H54.7989V138.911H39.9642V137.221ZM85.1882 110.902L82.1562 111.709L72.1952 114.357L74.3083 106.712L74.6628 105.431L74.927 104.48L75.7592 101.473L77.3403 103.054L77.8541 103.568L80.4809 106.195L85.1955 110.909L85.1882 110.902ZM132.142 64.332L130.391 62.5771L129.783 61.9693L128.741 60.9272L128.212 60.399L127.373 59.5595L126.859 59.0458L125.976 58.1629L125.426 57.6129L124.207 56.3936L123.545 55.7315L122.336 54.523L123.064 53.7957L123.672 53.1879L124.254 52.6053L125.01 51.8491L125.539 51.3209L126.628 50.2318L127.141 49.718L128.281 48.5783L128.831 48.0283L130.383 46.4761L130.741 46.1179L131.111 46.4869L132.807 48.1839L133.415 48.7917L134.421 49.7976L134.949 50.3259L135.756 51.1327L136.27 51.6465L137.12 52.4968L137.67 53.0468L138.85 54.2263L139.512 54.8884L140.55 55.9269L139.758 56.7192L139.15 57.3271L137.906 58.5718L137.377 59.1L136.368 60.1095L135.854 60.6233L134.798 61.6798L134.248 62.2298L134.059 62.4179L132.8 63.6771L132.142 64.3356V64.332Z"/>
</mask>
<path d="M134.559 62.9389L134.573 62.9245L135.109 62.389L136.335 61.1624L136.849 60.6486L138.021 59.4763L138.55 58.9481L139.99 57.508L140.598 56.9002L141.318 56.1801C141.386 56.1114 141.422 56.0209 141.422 55.9232C141.422 55.8255 141.383 55.7351 141.318 55.6663L140.442 54.7907L139.78 54.1286L138.383 52.732L137.833 52.182L136.813 51.1617L136.299 50.6479L135.326 49.6746L134.798 49.1463L133.596 47.9451L132.988 47.3372L130.995 45.3436C130.926 45.2748 130.836 45.2387 130.738 45.2387C130.64 45.2387 130.55 45.2785 130.481 45.3436L130.286 45.539L128.513 47.3119L127.963 47.8619L126.653 49.1717L126.139 49.6854L124.887 50.9373L124.359 51.4656L123.737 52.0879L122.825 52.9997L122.217 53.6076L121.558 54.2661L119.72 56.1041L119.384 56.4406L119.044 56.7808L118.914 56.911L116.869 58.9553L114.735 61.09L114.695 61.1298L112.614 63.2103L112.021 63.8037V42.1379C112.021 41.9389 111.858 41.776 111.659 41.776H39.6024C39.4034 41.776 39.2406 41.9389 39.2406 42.1379V139.272C39.2406 139.471 39.4034 139.634 39.6024 139.634H111.666C111.865 139.634 112.028 139.471 112.028 139.272V85.4659L114.742 82.7523L115.61 81.8839L117.636 79.8577L125.531 71.9628L127.706 69.7882L128.162 69.3323L129.11 68.3844L129.88 67.6137L130.22 67.2736L132.229 65.2655L132.395 65.099L132.891 64.6033L134.555 62.9389H134.559ZM129.37 67.0999L128.451 68.0189L127.453 69.0175L125.271 66.8358L124.743 66.3075L122.402 63.9665L121.888 63.4527L119.449 61.0141L118.899 60.4641L117.644 59.2086L119.561 57.2909L119.901 56.9508L120.053 56.7988L120.86 55.992L121.819 55.0332L122.608 55.8219L123.27 56.4841L124.71 57.9241L125.26 58.4741L126.313 59.527L126.827 60.0408L127.829 61.043L128.357 61.5713L129.595 62.8087L130.202 63.4166L131.628 64.8421L129.71 66.7598L129.399 67.0709L129.37 67.0999ZM119.087 77.3829L117.061 79.409L114.745 81.7247L112.032 84.4384L111.67 84.8002L111.308 85.162L108.594 87.8757L87.8114 108.659L85.8938 110.576L80.9875 105.67L78.3896 103.072L77.8758 102.558L76.0848 100.767L78.0025 98.8497L108.594 68.2577L111.308 65.5441L111.67 65.1822L112.032 64.8204L113.041 63.8109L114.445 62.4071L114.745 62.1068L115.216 61.6364L117.133 59.7187L118.186 60.7716L118.736 61.3216L121.345 63.9303L121.859 64.4441L124.363 66.9479L124.891 67.4762L126.939 69.5241L125.021 71.4417L119.087 77.3756V77.3829ZM111.308 89.2289V138.911H55.5225V42.4997H111.308V64.5273L111.221 64.6142L108.594 67.241L77.4923 98.3431L75.3467 100.489L75.3177 100.518C75.3177 100.518 75.3177 100.521 75.3141 100.525C75.2707 100.568 75.2381 100.615 75.22 100.677L74.3336 103.886L73.6642 106.31L73.3096 107.591L71.3268 114.77C71.2907 114.896 71.3268 115.03 71.4173 115.121C71.486 115.19 71.5801 115.229 71.6742 115.229C71.7068 115.229 71.7357 115.226 71.7683 115.218L82.7459 112.302L85.9806 111.445C85.9806 111.445 85.9878 111.445 85.9878 111.441C86.0132 111.434 86.0385 111.423 86.0602 111.412C86.0674 111.409 86.0711 111.405 86.0783 111.398C86.1 111.383 86.1253 111.372 86.1434 111.354L88.318 109.18L108.591 88.9068L111.304 86.1932V89.2325L111.308 89.2289ZM39.9642 137.221V42.4997H54.7989V138.911H39.9642V137.221ZM85.1882 110.902L82.1562 111.709L72.1952 114.357L74.3083 106.712L74.6628 105.431L74.927 104.48L75.7592 101.473L77.3403 103.054L77.8541 103.568L80.4809 106.195L85.1955 110.909L85.1882 110.902ZM132.142 64.332L130.391 62.5771L129.783 61.9693L128.741 60.9272L128.212 60.399L127.373 59.5595L126.859 59.0458L125.976 58.1629L125.426 57.6129L124.207 56.3936L123.545 55.7315L122.336 54.523L123.064 53.7957L123.672 53.1879L124.254 52.6053L125.01 51.8491L125.539 51.3209L126.628 50.2318L127.141 49.718L128.281 48.5783L128.831 48.0283L130.383 46.4761L130.741 46.1179L131.111 46.4869L132.807 48.1839L133.415 48.7917L134.421 49.7976L134.949 50.3259L135.756 51.1327L136.27 51.6465L137.12 52.4968L137.67 53.0468L138.85 54.2263L139.512 54.8884L140.55 55.9269L139.758 56.7192L139.15 57.3271L137.906 58.5718L137.377 59.1L136.368 60.1095L135.854 60.6233L134.798 61.6798L134.248 62.2298L134.059 62.4179L132.8 63.6771L132.142 64.3356V64.332Z" fill="#C44F10"/>
<path d="M134.559 62.9389L134.573 62.9245L135.109 62.389L136.335 61.1624L136.849 60.6486L138.021 59.4763L138.55 58.9481L139.99 57.508L140.598 56.9002L141.318 56.1801C141.386 56.1114 141.422 56.0209 141.422 55.9232C141.422 55.8255 141.383 55.7351 141.318 55.6663L140.442 54.7907L139.78 54.1286L138.383 52.732L137.833 52.182L136.813 51.1617L136.299 50.6479L135.326 49.6746L134.798 49.1463L133.596 47.9451L132.988 47.3372L130.995 45.3436C130.926 45.2748 130.836 45.2387 130.738 45.2387C130.64 45.2387 130.55 45.2785 130.481 45.3436L130.286 45.539L128.513 47.3119L127.963 47.8619L126.653 49.1717L126.139 49.6854L124.887 50.9373L124.359 51.4656L123.737 52.0879L122.825 52.9997L122.217 53.6076L121.558 54.2661L119.72 56.1041L119.384 56.4406L119.044 56.7808L118.914 56.911L116.869 58.9553L114.735 61.09L114.695 61.1298L112.614 63.2103L112.021 63.8037V42.1379C112.021 41.9389 111.858 41.776 111.659 41.776H39.6024C39.4034 41.776 39.2406 41.9389 39.2406 42.1379V139.272C39.2406 139.471 39.4034 139.634 39.6024 139.634H111.666C111.865 139.634 112.028 139.471 112.028 139.272V85.4659L114.742 82.7523L115.61 81.8839L117.636 79.8577L125.531 71.9628L127.706 69.7882L128.162 69.3323L129.11 68.3844L129.88 67.6137L130.22 67.2736L132.229 65.2655L132.395 65.099L132.891 64.6033L134.555 62.9389H134.559ZM129.37 67.0999L128.451 68.0189L127.453 69.0175L125.271 66.8358L124.743 66.3075L122.402 63.9665L121.888 63.4527L119.449 61.0141L118.899 60.4641L117.644 59.2086L119.561 57.2909L119.901 56.9508L120.053 56.7988L120.86 55.992L121.819 55.0332L122.608 55.8219L123.27 56.4841L124.71 57.9241L125.26 58.4741L126.313 59.527L126.827 60.0408L127.829 61.043L128.357 61.5713L129.595 62.8087L130.202 63.4166L131.628 64.8421L129.71 66.7598L129.399 67.0709L129.37 67.0999ZM119.087 77.3829L117.061 79.409L114.745 81.7247L112.032 84.4384L111.67 84.8002L111.308 85.162L108.594 87.8757L87.8114 108.659L85.8938 110.576L80.9875 105.67L78.3896 103.072L77.8758 102.558L76.0848 100.767L78.0025 98.8497L108.594 68.2577L111.308 65.5441L111.67 65.1822L112.032 64.8204L113.041 63.8109L114.445 62.4071L114.745 62.1068L115.216 61.6364L117.133 59.7187L118.186 60.7716L118.736 61.3216L121.345 63.9303L121.859 64.4441L124.363 66.9479L124.891 67.4762L126.939 69.5241L125.021 71.4417L119.087 77.3756V77.3829ZM111.308 89.2289V138.911H55.5225V42.4997H111.308V64.5273L111.221 64.6142L108.594 67.241L77.4923 98.3431L75.3467 100.489L75.3177 100.518C75.3177 100.518 75.3177 100.521 75.3141 100.525C75.2707 100.568 75.2381 100.615 75.22 100.677L74.3336 103.886L73.6642 106.31L73.3096 107.591L71.3268 114.77C71.2907 114.896 71.3268 115.03 71.4173 115.121C71.486 115.19 71.5801 115.229 71.6742 115.229C71.7068 115.229 71.7357 115.226 71.7683 115.218L82.7459 112.302L85.9806 111.445C85.9806 111.445 85.9878 111.445 85.9878 111.441C86.0132 111.434 86.0385 111.423 86.0602 111.412C86.0674 111.409 86.0711 111.405 86.0783 111.398C86.1 111.383 86.1253 111.372 86.1434 111.354L88.318 109.18L108.591 88.9068L111.304 86.1932V89.2325L111.308 89.2289ZM39.9642 137.221V42.4997H54.7989V138.911H39.9642V137.221ZM85.1882 110.902L82.1562 111.709L72.1952 114.357L74.3083 106.712L74.6628 105.431L74.927 104.48L75.7592 101.473L77.3403 103.054L77.8541 103.568L80.4809 106.195L85.1955 110.909L85.1882 110.902ZM132.142 64.332L130.391 62.5771L129.783 61.9693L128.741 60.9272L128.212 60.399L127.373 59.5595L126.859 59.0458L125.976 58.1629L125.426 57.6129L124.207 56.3936L123.545 55.7315L122.336 54.523L123.064 53.7957L123.672 53.1879L124.254 52.6053L125.01 51.8491L125.539 51.3209L126.628 50.2318L127.141 49.718L128.281 48.5783L128.831 48.0283L130.383 46.4761L130.741 46.1179L131.111 46.4869L132.807 48.1839L133.415 48.7917L134.421 49.7976L134.949 50.3259L135.756 51.1327L136.27 51.6465L137.12 52.4968L137.67 53.0468L138.85 54.2263L139.512 54.8884L140.55 55.9269L139.758 56.7192L139.15 57.3271L137.906 58.5718L137.377 59.1L136.368 60.1095L135.854 60.6233L134.798 61.6798L134.248 62.2298L134.059 62.4179L132.8 63.6771L132.142 64.3356V64.332Z" stroke="#C44F10" stroke-width="0.6" mask="url(#path-26-outside-1_226_4478)"/>
</svg>
