<svg width="114" height="4" viewBox="0 0 114 4" fill="none" xmlns="http://www.w3.org/2000/svg">
<g clip-path="url(#clip0_2025_53)">
<path d="M108.022 1.59449L104.468 1.48076L103.781 1.21541L102.089 1.15381H97.909L97.3275 1.26753L96.7053 1.24858H95.5342L93.1797 1.20119L92.7324 1.45233L92.4884 1.20119L90.1502 1.48076L87.7916 1.93092L88.5439 2.22944L91.3498 3.21979L93.135 3.32403L96.1319 3.20083L99.1045 3.32403H113.963C113.976 3.15819 113.988 2.99234 114 2.83123L108.026 1.59449" fill="#C44F10"/>
<path d="M89.0766 1.99736L88.2552 1.95471L87.1776 1.68462L86.7709 1.6325L86.3887 1.27237L85.6283 1.25816L84.8638 1.26763H82.5825L81.0616 1.61828L80.2931 1.00702L79.5204 1.04019L78.7925 1.08283L77.6011 0.770094L76.7796 0.87434L75.397 0.77957L74.9457 1.06388C74.8399 0.997541 74.7261 0.96911 74.6082 0.973848C74.5594 0.817478 74.5106 0.65637 74.4658 0.5L73.7745 0.746401L73.0548 1.10653L73.0263 1.08283C72.8392 1.10653 72.6563 1.13496 72.4692 1.16339L72.457 1.15391L69.2526 0.71797L68.1018 0.727447C68.1018 0.921725 68.1059 1.116 68.1099 1.31028C68.1099 1.116 68.1059 0.921725 68.1018 0.727447L67.6301 0.518954L67.2682 0.623201L65.8165 0.703755L61.6361 1.03071L56.6872 0.642154L55.5486 0.940679L54.0074 0.727447L50.5998 1.00702L49.0708 1.18708L45.6549 1.05914L40.6979 0.945417L39.5227 0.760617C39.4007 0.75114 39.2828 0.722709 39.173 0.665847L37.6643 1.04019L37.2089 1.12548C37.0991 1.08757 36.9934 1.0544 36.8836 1.01176L36.7738 0.784309L36.5257 1.01649L35.7531 1.09231L34.9845 1.06388L34.2241 0.954894L32.6788 1.06388L32.7195 0.954894L24.7004 1.37188C21.7889 1.35293 18.8773 1.29607 15.9657 1.31976C11.1144 1.3624 6.26309 1.49508 1.41586 1.4856C0.667635 1.49034 -0.141592 1.27711 0.021067 2.0637C0.134928 2.60389 0.883157 3.28149 1.52566 3.46155C2.44061 3.71743 3.52229 3.57528 4.53484 3.60371L7.58062 3.57528C11.7487 3.55158 15.9169 3.5658 20.0809 3.49472C21.8783 3.46629 23.6757 3.26727 25.4731 3.14881L27.7625 3.26254L31.9509 2.84081L32.6992 2.86924L33.0896 2.52333H33.4759L33.8541 2.63232L36.5013 2.51386L37.3105 2.49016L37.9815 2.50438L39.5634 2.3101L44.1056 2.52807L45.2767 2.22955L46.0331 2.58019L47.1677 2.56124L49.0789 2.3101L52.4622 2.56598L54.41 2.31958L55.1705 2.32905H58.9807L61.258 2.19164L62.0306 2.22007L62.7829 2.25324L63.1651 1.91681L65.8327 2.03527L66.5931 1.94524L66.951 2.24376C66.9591 2.05896 66.9632 1.86942 66.9713 1.68462L66.951 2.24376L67.7277 1.98315L68.5085 2.1253C68.5532 2.06844 68.5491 1.97841 68.4963 1.92628C68.4922 1.92154 68.4841 1.91681 68.48 1.91207L71.172 1.95945L71.2899 2.01631H71.4282L72.6481 2.18216L73.8518 1.85994L74.3764 1.79834L75.885 2.00684V2.01631L76.6495 2.31958L77.1741 2.30062L78.089 2.28641L79.5286 2.27693L81.0738 2.18216C81.513 2.30536 81.9563 2.41909 82.3954 2.54702C82.8346 2.67496 83.2779 2.81712 83.7211 2.9498H86.0065L86.7953 2.62758L87.5395 2.86924L89.4264 2.88346C89.4507 2.78869 89.4548 2.68918 89.4345 2.59441L91.3376 3.1725C90.7398 2.87398 90.1461 2.57072 89.5483 2.27219L89.0685 2.0021M37.7253 1.34819L37.3431 1.52351L37.7253 1.34345M38.0059 1.88364C38.0181 1.90733 38.0303 1.93102 38.0466 1.95471C38.0344 1.93102 38.0222 1.90733 38.0059 1.88364ZM75.9054 1.98315C75.885 1.90259 75.8769 1.8173 75.8728 1.73201C75.8728 1.8173 75.8891 1.89785 75.9054 1.97841" fill="#C44F10"/>
<path d="M74.909 0.689529L72.3674 0.523682L73.1075 0.699005L74.909 0.689529Z" fill="#C44F10"/>
</g>
<defs>
<clipPath id="clip0_2025_53">
<rect width="114" height="3.11792" fill="white" transform="translate(0 0.5)"/>
</clipPath>
</defs>
</svg>
