<svg width="242" height="6" viewBox="0 0 242 6" fill="none" xmlns="http://www.w3.org/2000/svg">
<g clip-path="url(#clip0_214_3403)">
<path d="M228.871 2.09126L221.357 1.87208L219.904 1.36066L216.328 1.24194H207.49L206.261 1.46112L204.946 1.42459H202.47L197.492 1.33327L196.546 1.81729L196.03 1.33327L191.087 1.87208L186.101 2.73966L187.691 3.315L193.623 5.22368L197.397 5.42459L203.733 5.18715L210.018 5.42459H241.431C241.457 5.10496 241.483 4.78532 241.509 4.47482L228.88 2.09126" fill="#F8F7F6"/>
<path d="M188.817 2.86753L187.08 2.78534L184.802 2.26479L183.943 2.16434L183.134 1.47027L181.527 1.44288L179.911 1.46114H175.088L171.872 2.13694L170.247 0.958858L168.614 1.02279L167.075 1.10498L164.556 0.502237L162.82 0.703151L159.897 0.520502L158.942 1.06845C158.719 0.940594 158.478 0.885799 158.229 0.894931C158.126 0.593562 158.023 0.283059 157.928 -0.0183105L156.466 0.456575L154.945 1.15064L154.885 1.10498C154.489 1.15064 154.102 1.20543 153.707 1.26023L153.681 1.24196L146.907 0.401781L144.474 0.420046C144.474 0.794475 144.482 1.1689 144.491 1.54333C144.491 1.1689 144.482 0.794475 144.474 0.420046L143.476 0.0182191L142.711 0.219132L139.642 0.374384L130.804 1.00452L120.342 0.255662L117.935 0.831005L114.676 0.420046L107.472 0.958858L104.24 1.30589L97.0181 1.05931L86.5384 0.840137L84.0539 0.483973C83.7959 0.465708 83.5466 0.410913 83.3145 0.301324L80.125 1.02279L79.1622 1.18717C78.93 1.11411 78.7065 1.05018 78.4744 0.967991L78.2423 0.529635L77.7179 0.977123L76.0844 1.12324L74.4596 1.06845L72.852 0.858402L69.5851 1.06845L69.6711 0.858402L52.7178 1.66205C46.5623 1.62553 40.4068 1.51594 34.2514 1.5616C23.9951 1.64379 13.7389 1.8995 3.49127 1.88123C1.90942 1.89037 0.198613 1.47941 0.542494 2.99539C0.78321 4.03648 2.36506 5.34242 3.72339 5.68945C5.65771 6.1826 7.94452 5.90863 10.0852 5.96343L16.5243 5.90863C25.3363 5.86297 34.1482 5.89037 42.9515 5.75338C46.7514 5.69858 50.5513 5.31502 54.3512 5.08671L59.1913 5.30589L68.0462 4.49311L69.6281 4.5479L70.4534 3.88123H71.2701L72.0696 4.09128L77.6663 3.86297L79.3771 3.81731L80.7956 3.8447L84.1398 3.47027L93.7427 3.89037L96.2186 3.31502L97.8177 3.99082L100.216 3.95429L104.257 3.47027L111.41 3.96342L115.528 3.48854L117.135 3.5068H125.191L130.005 3.24196L131.638 3.29676L133.229 3.36069L134.037 2.71228L139.676 2.94059L141.284 2.76708L142.041 3.34242C142.058 2.98626 142.066 2.62096 142.084 2.26479L142.041 3.34242L143.683 2.84014L145.333 3.11411C145.428 3.00452 145.419 2.831 145.308 2.73055C145.299 2.72142 145.282 2.71228 145.273 2.70315L150.964 2.79447L151.214 2.90406H151.506L154.085 3.2237L156.63 2.60269L157.739 2.48397L160.928 2.8858V2.90406L162.545 3.48854L163.654 3.45201L165.588 3.42461L168.631 3.40635L171.898 3.2237C172.827 3.46114 173.764 3.68032 174.692 3.9269C175.621 4.17347 176.558 4.44744 177.495 4.70315H182.326L183.994 4.08215L185.567 4.5479L189.556 4.5753C189.608 4.39265 189.617 4.20087 189.574 4.01822L193.597 5.13237C192.333 4.55703 191.078 3.97256 189.814 3.39721L188.8 2.87667M80.254 1.61639L79.4459 1.95429L80.254 1.60726M80.8472 2.64836C80.873 2.69402 80.8988 2.73968 80.9331 2.78534C80.9073 2.73968 80.8816 2.69402 80.8472 2.64836ZM160.971 2.84014C160.928 2.68489 160.911 2.5205 160.903 2.35612C160.903 2.5205 160.937 2.67575 160.971 2.831" fill="#F8F7F6"/>
<path d="M158.866 0.346978L153.492 0.0273438L155.057 0.365243L158.866 0.346978Z" fill="#F8F7F6"/>
</g>
<defs>
<clipPath id="clip0_214_3403">
<rect width="241" height="6" fill="white" transform="translate(0.5)"/>
</clipPath>
</defs>
</svg>
