<svg width="60" height="26" viewBox="0 0 60 26" fill="none" xmlns="http://www.w3.org/2000/svg">
<path d="M24.8088 9.92133C23.926 9.85818 23.0748 10.0476 22.2867 10.4581C21.7507 10.8054 21.3724 11.6264 21.1202 12.7947L21.0256 13.142C20.7419 14.3103 20.8365 15.0366 21.3094 15.4786C22.0345 15.9522 22.8857 16.1733 23.7369 16.1101C24.6511 16.1733 25.5339 15.9838 26.3535 15.5733C26.8895 15.226 27.2678 14.405 27.52 13.2368L27.6146 12.8894C27.8983 11.7211 27.7091 10.9949 27.2678 10.5528C26.7949 10.0792 25.9752 9.92133 24.8088 9.92133Z" fill="#F8F7F6"/>
<path d="M45.5529 9.92133C44.6702 9.85818 43.819 10.0476 43.0308 10.4581C42.4949 10.8054 42.1166 11.6264 41.8644 12.7947L41.7698 13.142C41.4861 14.3103 41.5806 15.0366 42.0535 15.4786C42.7786 15.9522 43.6298 16.1733 44.481 16.1101C45.3953 16.1733 46.278 15.9838 47.0977 15.5733C47.6336 15.226 48.0119 14.405 48.2641 13.2368L48.3587 12.8894C48.6425 11.7211 48.4533 10.9949 48.0119 10.5528C47.5706 10.1108 46.7194 9.92133 45.5529 9.92133Z" fill="#F8F7F6"/>
<path d="M54.5063 19.2993C53.6236 19.2361 52.7724 19.4256 51.9842 19.836C51.4483 20.1834 51.07 21.0043 50.8178 22.1726L50.7232 22.52C50.4395 23.6882 50.534 24.4145 51.0069 24.8565C51.732 25.3302 52.5832 25.5512 53.4344 25.488C54.3487 25.5512 55.2314 25.3617 56.0511 24.9513C56.587 24.6039 56.9653 23.783 57.2176 22.6147L57.3121 22.2674C57.5959 21.0991 57.4067 20.3728 56.9653 19.9308C56.524 19.4887 55.7043 19.2993 54.5063 19.2993Z" fill="#F8F7F6"/>
<path d="M3.87549 19.2993C2.99276 19.2361 2.14156 19.4256 1.35341 19.836C0.817463 20.1834 0.43915 21.0043 0.186942 22.1726L0.0923638 22.52C-0.0967925 23.6882 -0.00221437 24.5092 0.43915 24.8565C1.16425 25.3302 2.01545 25.5512 2.86666 25.488C3.78091 25.5512 4.66364 25.3617 5.48332 24.9513C6.01926 24.6039 6.39757 23.783 6.64978 22.6147L6.74436 22.2674C7.02809 21.0991 6.83894 20.3728 6.39757 19.9308C5.67247 19.4571 4.78974 19.2361 3.87549 19.2993Z" fill="#F8F7F6"/>
<path d="M44.1973 19.2993H34.8341C33.9513 19.2361 33.1001 19.4256 32.312 19.836C31.776 20.1834 31.3977 21.0043 31.1455 22.1726L31.0509 22.52C30.7672 23.6882 30.8618 24.4145 31.3347 24.8565C32.0598 25.3302 32.911 25.5512 33.7622 25.488H43.1254C44.0397 25.5512 44.9224 25.3617 45.7421 24.9513C46.278 24.6039 46.6563 23.783 46.9085 22.6147L47.0031 22.2674C47.2868 21.0991 47.0977 20.3728 46.6563 19.9308C46.215 19.4887 45.3638 19.2993 44.1973 19.2993Z" fill="#F8F7F6"/>
<path d="M23.4531 19.2993H14.0899C13.2072 19.2361 12.356 19.4256 11.5678 19.836C11.0319 20.1834 10.6536 21.0043 10.4014 22.1726L10.3068 22.52C10.023 23.6882 10.1176 24.4145 10.5905 24.8565C11.3156 25.3302 12.1668 25.5512 13.018 25.488H22.3812C23.2955 25.5512 24.1782 25.3617 24.9979 24.9513C25.5339 24.6039 25.9122 23.783 26.1644 22.6147L26.259 22.2674C26.5427 21.0991 26.3535 20.3728 25.9122 19.9308C25.4393 19.4887 24.6196 19.2993 23.4531 19.2993Z" fill="#F8F7F6"/>
<path d="M59.5505 1.14341C59.1091 0.701356 58.2894 0.511903 57.123 0.511903C56.2402 0.448752 55.389 0.638205 54.6009 1.04869C54.0649 1.39602 53.6866 2.21698 53.4344 3.38527L53.3398 3.7326C53.0561 4.90089 53.1507 5.62713 53.6236 6.06918C54.3487 6.54282 55.1999 6.76384 56.0511 6.70069C56.9653 6.76384 57.8481 6.57439 58.6677 6.16391C59.2037 5.81658 59.582 4.99562 59.8342 3.82733L59.9288 3.48C60.0864 2.34328 59.9918 1.52232 59.5505 1.14341Z" fill="#F8F7F6"/>
<path d="M49.273 1.14341C48.8316 0.701356 48.0119 0.511903 46.8455 0.511903C45.9627 0.448752 45.1115 0.638205 44.3234 1.04869C43.7874 1.39602 43.4091 2.21698 43.1569 3.38527L43.0623 3.7326C42.7786 4.90089 42.8732 5.62713 43.3461 6.06918C44.0712 6.54282 44.9224 6.76384 45.7736 6.70069C46.6878 6.76384 47.5706 6.57439 48.3902 6.16391C48.9262 5.81658 49.3045 4.99562 49.5567 3.82733L49.6513 3.48C49.8089 2.34328 49.7143 1.52232 49.273 1.14341Z" fill="#F8F7F6"/>
<path d="M35.4961 6.73219C36.4104 6.79534 37.2931 6.60589 38.1128 6.19541C38.6487 5.84808 39.027 5.02711 39.2792 3.85882L39.3738 3.51149C39.6575 2.3432 39.4684 1.61696 39.027 1.17491C38.5857 0.73285 37.766 0.543397 36.5995 0.543397C35.7168 0.480246 34.8656 0.669699 34.0774 1.08018C33.5415 1.42751 33.1632 2.24847 32.911 3.41676L32.8164 3.76409C32.5327 4.93239 32.6272 5.65862 33.1001 6.10068C33.5415 6.57431 34.3296 6.73219 35.4961 6.73219Z" fill="#F8F7F6"/>
<path d="M26.1644 0.511903H16.8011C15.9184 0.448752 15.0672 0.638205 14.2791 1.04869C13.7431 1.39602 13.3648 2.21698 13.1126 3.38527L13.018 3.76418C12.7343 4.93247 12.8289 5.6587 13.3017 6.10076C14.0268 6.57439 14.8781 6.79542 15.7293 6.73227H25.0925C26.0067 6.79542 26.8895 6.60597 27.7092 6.19549C28.2451 5.84816 28.6234 5.02719 28.8756 3.8589L28.9702 3.51157C29.2539 2.34328 29.0648 1.61704 28.6234 1.17499C28.119 0.701356 27.3308 0.511903 26.1644 0.511903Z" fill="#F8F7F6"/>
</svg>
