<svg width="180" height="181" id="Layer_1" data-name="Layer 1" xmlns="http://www.w3.org/2000/svg" version="1.1" viewBox="0 0 180 180">
  <path fill="#C44F10" class="cls-1" d="M153.5,26.3h0c0,0,0,0,0,0C136.4,9.3,113.9,0,90,0S43.5,9.4,26.5,26.3.2,65.8.2,89.8s9.3,46.5,26.3,63.5c17,17,39.5,26.3,63.5,26.3s46.5-9.3,63.5-26.3c17-17,26.3-39.5,26.3-63.5s-9.3-46.5-26.3-63.5ZM152.5,152.3h0c-16.7,16.7-38.9,25.9-62.5,25.9s-45.8-9.2-62.5-25.9C10.7,135.6,1.5,113.4,1.5,89.8S10.7,44,27.5,27.3C44.2,10.5,66.4,1.3,90,1.3s45.8,9.2,62.5,25.9c16.7,16.7,25.9,38.9,25.9,62.5s-9.2,45.8-25.9,62.5Z"/>
  <polygon fill="#C44F10" class="cls-1" points="55.3 166.6 56.7 167.2 56.7 166.8 60.1 156.2 60.4 152.9 59.8 152.8 55.3 166.6"/>
  <path fill="#C44F10" class="cls-1" d="M65.7,96.6l.2-2.6-38,52.4v.2c-.1,0,0,.3,0,.3.1.2.3.3.4.5l.2.3,37-50.9h0Z"/>
  <path fill="#C44F10" class="cls-1" d="M70,75.8L10.8,118.7v.2c.2.2.2.4.3.7v.4c.1,0,58.8-42.6,58.8-42.6v-1.6Z"/>
  <path fill="#C44F10" class="cls-1" d="M70,68.5h-2.1L5.7,88.7v.2c0,.1,0,.2,0,.4,0,.1,0,.3,0,.4v.4l64.3-20.9v-.7Z"/>
  <path fill="#C44F10" class="cls-1" d="M70,61.4H10.6v.2c-.2.2-.2.5-.3.7v.4c-.1,0,59.7,0,59.7,0v-1.3Z"/>
  <path fill="#C44F10" class="cls-1" d="M70,56.2v-1.4l-47.5-15.4v.2c-.3.2-.4.4-.6.6l-.2.3,48,15.6h.4Z"/>
  <polygon fill="#C44F10" class="cls-1" points="64.2 44.1 65.3 43.4 65.1 43.1 38 23.5 36.9 24.3 64 44 64.2 44.1"/>
  <path fill="#C44F10" class="cls-1" d="M73.7,38.5l-18.5-25.5h-.2c-.2.2-.4.3-.5.3l-.5.2,18.6,25.6,1.2-.7Z"/>
  <path fill="#C44F10" class="cls-1" d="M81.6,33.9l-8.7-26.7h-.3c-.2.1-.5.2-.7.2h-.3c0,0,8.8,27.1,8.8,27.1l1.2-.7Z"/>
  <path fill="#C44F10" class="cls-1" d="M90.3,29.5h.3s0-24,0-24h-1.3v24h.3c.2,0,.4,0,.7,0Z"/>
  <polygon fill="#C44F10" class="cls-1" points="108.4 7.5 107.1 7.3 98.4 33.9 99.6 34.6 108.4 7.5"/>
  <path fill="#C44F10" class="cls-1" d="M107.4,39.2l18.6-25.6-.3-.2c-.2-.1-.4-.2-.7-.3h-.2c0-.1-18.5,25.4-18.5,25.4l1.2.7Z"/>
  <polygon fill="#C44F10" class="cls-1" points="114.6 43.4 115.3 43.8 115.8 44.1 143.1 24.3 142 23.5 115 43.1 114.6 43.4"/>
  <path fill="#C44F10" class="cls-1" d="M110,56.2l48.4-15.7-.2-.3c-.1-.2-.3-.4-.5-.6v-.2c-.1,0-47.7,15.4-47.7,15.4v1.4Z"/>
  <polygon fill="#C44F10" class="cls-1" points="110 62.4 110 62.7 110.3 62.7 169.8 62.7 169.4 61.4 110 61.4 110 62.4"/>
  <path fill="#C44F10" class="cls-1" d="M174.3,89.2v-.4s-62.1-20.2-62.1-20.2h-2.2s0,.7,0,.7l63.9,20.8h.4c0,.1,0-.3,0-.3,0-.2,0-.4,0-.5Z"/>
  <polygon fill="#C44F10" class="cls-1" points="110 77.1 110 77.4 168.4 119.8 168.7 120 169.2 118.7 110 75.8 110 77.1"/>
  <polygon fill="#C44F10" class="cls-1" points="114.1 94 114.3 96.6 151.1 147.3 151.3 147.6 152.3 146.6 114.7 94.9 114.1 94"/>
  <path fill="#C44F10" class="cls-1" d="M119.6,152.9l.3,3.3,3.5,11,.5-.2c.1,0,.3-.1.4-.2h.2c0-.1-4.5-13.9-4.5-13.9h-.6Z"/>
  <path fill="#C44F10" class="cls-1" d="M116.4,141.4l-4.7-50h6.1c.4,0,.7-.3.7-.7s-.3-.7-.7-.7h-9.9v-23.6h5.5c.4,0,.7-.3.7-.7s-.3-.7-.7-.7h-5.5v-15.6h10.6c.3,0,.6-.2.6-.5,0-.3,0-.6-.3-.7l-28.3-16.5h-.2c-.2-.2-.5-.2-.7-.1l-28.5,16.6c-.3.2-.4.5-.3.7,0,.3.3.5.6.5h10.6v15.6h-5.5c-.4,0-.7.3-.7.7s.3.7.7.7h5.5v23.6h-9.9c-.4,0-.7.3-.7.7s.3.7.7.7h6.1l-7.3,77.4v.2s1.3.5,1.3.5l7.4-78.1h40.7l7.3,77.7v.4s.8-.3.8-.3c0,0,.2,0,.3-.1h.2c0,0-2.6-27.6-2.6-27.6h0ZM106.6,66.4v23.6h-33.1v-23.6h33.1ZM106.6,49.5v15.6h-33.1v-15.6h33.1ZM116.1,48.2h-52.1l25.9-15.1h.2c0-.1,26.1,15.1,26.1,15.1Z"/>
  <path fill="#C44F10" class="cls-1" d="M90.4,111.5v.3h0v-.3c-.3,0-.4,0-.7,0-4,.2-7.1,3.5-7.1,7.5v15.5c0,.4.3.7.7.7h13.7c.4,0,.7-.3.7-.7v-15.5c0-4-3.1-7.3-7.2-7.5ZM83.8,133.8v-14.8c0-3.3,2.6-6,5.9-6.2h0c.2,0,.3,0,.5,0h0c3.3.2,5.9,2.9,5.9,6.2v14.8h-12.4Z"/>
  <path fill="#C44F10" class="cls-1" d="M90.4,155.2h0c-.2,0-.4,0-.6,0h0c-4,.2-7.2,3.5-7.2,7.5v11h1.3c0,.1,0-11,0-11,0-3.3,2.6-6,5.9-6.2.2,0,.3,0,.6,0,3.3.2,5.9,2.9,5.9,6.2v11.1h1.3v-11.1c0-4-3.1-7.3-7.1-7.5Z"/>
</svg>