<svg width="180" height="181" viewBox="0 0 180 181" fill="none" xmlns="http://www.w3.org/2000/svg">
<path d="M153.381 27.3273L153.337 27.2834H153.334C136.41 10.3824 113.921 1.07308 90 1.07308C66.0583 1.07308 43.5475 10.3985 26.6187 27.3273C9.68987 44.2561 0.364404 66.767 0.364404 90.7087C0.364404 114.65 9.68987 137.161 26.6187 154.09C43.5475 171.019 66.0583 180.344 90 180.344C113.942 180.344 136.453 171.019 153.381 154.09C170.31 137.161 179.636 114.65 179.636 90.7087C179.636 66.767 170.31 44.2561 153.381 27.3273ZM152.655 153.36L152.612 153.404V153.408C135.881 170.115 113.646 179.317 90 179.317C66.3333 179.317 44.0796 170.099 27.3446 153.364C10.6095 136.629 1.39167 114.375 1.39167 90.7087C1.39167 67.0419 10.6095 44.7883 27.3446 28.0533C44.0796 11.3182 66.3297 2.09673 90 2.09673C113.67 2.09673 135.92 11.3146 152.655 28.0496C169.39 44.7847 178.608 67.0383 178.608 90.7051C178.608 114.372 169.39 136.625 152.655 153.36Z" fill="#C44F10" stroke="#C44F10" stroke-width="0.3"/>
<path d="M89.6382 154.706H89.4882V154.856V174.68V174.83H89.6382C89.6966 174.83 89.7561 174.831 89.8169 174.832L89.8175 174.832C89.8777 174.833 89.9393 174.834 90.0001 174.834C90.0609 174.834 90.1224 174.833 90.1826 174.832L90.1832 174.832C90.244 174.831 90.3035 174.83 90.3619 174.83H90.5119V174.68V154.856V154.706H90.3619C90.3011 154.706 90.2395 154.707 90.1793 154.708L90.1787 154.708C90.1179 154.709 90.0585 154.71 90.0001 154.71C89.9417 154.71 89.8822 154.709 89.8214 154.708L89.8208 154.708C89.7606 154.707 89.6991 154.706 89.6382 154.706Z" fill="#C44F10" stroke="#C44F10" stroke-width="0.3"/>
<path d="M68.8464 171.985L68.7973 172.136L68.9511 172.177C69.1093 172.218 69.2686 172.257 69.4263 172.295C69.5043 172.313 69.5819 172.332 69.6588 172.351L69.7942 172.384L69.8373 172.252L76.1583 152.793L76.2052 152.649L76.0604 152.603C75.8304 152.531 75.6038 152.456 75.3756 152.38L75.2322 152.332L75.1855 152.476L68.8464 171.985Z" fill="#C44F10" stroke="#C44F10" stroke-width="0.3"/>
<path d="M49.0723 164.006L48.9365 164.142L49.1098 164.239C49.1658 164.27 49.2216 164.301 49.2776 164.333C49.4338 164.421 49.5903 164.508 49.7483 164.594L49.8639 164.657L49.9412 164.55L63.1043 146.434L63.1945 146.31L63.0682 146.223C62.8707 146.086 62.6766 145.946 62.481 145.805L62.3597 145.717L62.2718 145.838L49.0723 164.006Z" fill="#C44F10" stroke="#C44F10" stroke-width="0.3"/>
<path d="M52.2357 135.717L52.4886 135.533H52.0269H52.0233H51.7255L51.8139 135.652L31.2064 150.624L31.0628 150.729L31.1896 150.853C31.247 150.909 31.3047 150.966 31.3628 151.023C31.4791 151.138 31.5967 151.254 31.7154 151.368L31.8059 151.455L31.9074 151.381L52.5493 136.383L52.6728 136.294L52.5808 136.172C52.5275 136.101 52.4742 136.031 52.4211 135.961C52.3591 135.88 52.2972 135.799 52.2357 135.717Z" fill="#C44F10" stroke="#C44F10" stroke-width="0.3"/>
<path d="M45.3779 122.661L45.3308 122.519L45.1892 122.566L16.7826 131.796L16.6089 131.852L16.6981 132.011C16.7292 132.067 16.7605 132.123 16.7919 132.18C16.8802 132.338 16.9696 132.499 17.0608 132.657L17.1215 132.762L17.2372 132.725L45.5207 123.535L45.6665 123.487L45.616 123.343C45.5889 123.265 45.5618 123.188 45.5347 123.112C45.4811 122.961 45.4281 122.811 45.3779 122.661Z" fill="#C44F10" stroke="#C44F10" stroke-width="0.3"/>
<path d="M42.9251 108.179L42.9229 108.031H42.7751H7.84851H7.66393L7.70168 108.212C7.74473 108.418 7.7904 108.621 7.83618 108.825C7.84457 108.863 7.85296 108.9 7.86134 108.937L7.88758 109.055H8.00771H42.786H42.9405L42.9359 108.9C42.9311 108.74 42.9295 108.582 42.9279 108.422C42.9271 108.342 42.9263 108.261 42.9251 108.179Z" fill="#C44F10" stroke="#C44F10" stroke-width="0.3"/>
<path d="M45.0639 93.5612L45.1081 93.4196L44.967 93.3738L6.62123 80.9163L6.44728 80.8598L6.42591 81.0414C6.42318 81.0646 6.42046 81.0877 6.41773 81.1108C6.39156 81.333 6.36552 81.554 6.34246 81.7781L6.33005 81.8986L6.44532 81.9361L44.6645 94.3538L44.8108 94.4013L44.8546 94.2538C44.9234 94.0221 44.9919 93.7915 45.0639 93.5612Z" fill="#C44F10" stroke="#C44F10" stroke-width="0.3"/>
<path d="M51.7034 80.2711L51.791 80.1499L51.67 80.062L14.8294 53.2944L14.6852 53.1897L14.6066 53.3496C14.567 53.4301 14.5263 53.5115 14.4853 53.5932C14.4161 53.7314 14.3462 53.8709 14.2801 54.0099L14.2266 54.1224L14.3274 54.1957L51.0776 80.898L51.2018 80.9883L51.2892 80.862C51.4268 80.6627 51.5634 80.465 51.7034 80.2711Z" fill="#C44F10" stroke="#C44F10" stroke-width="0.3"/>
<path d="M62.1961 69.6593L62.3162 69.571L62.2286 69.4504L32.9355 29.129L32.8355 28.9914L32.7115 29.1078C32.6422 29.1729 32.5707 29.2388 32.4989 29.3052C32.3912 29.4046 32.2826 29.5048 32.1785 29.6046L32.084 29.6951L32.1609 29.801L61.4069 70.0573L61.4967 70.1808L61.6187 70.0888C61.8097 69.9446 62.0046 69.8003 62.1961 69.6593Z" fill="#C44F10" stroke="#C44F10" stroke-width="0.3"/>
<path d="M75.6301 62.6856V62.6618L75.6228 62.6393L59.3372 12.5162L59.2875 12.3633L59.1384 12.4234C59.0258 12.4688 58.9132 12.5151 58.8012 12.5612L58.801 12.5613C58.6887 12.6075 58.5771 12.6534 58.4655 12.6984L58.3356 12.7507L58.3789 12.8839L74.65 62.9599L74.6967 63.1037L74.8401 63.0559C75.0676 62.98 75.2984 62.9043 75.5255 62.8322L75.6301 62.799V62.6892V62.6856Z" fill="#C44F10" stroke="#C44F10" stroke-width="0.3"/>
<path d="M90.3573 26.7113L90.5119 26.716V26.5614V6.7336V6.5836H90.3619C90.3035 6.5836 90.244 6.58271 90.1832 6.58181L90.1826 6.5818C90.1224 6.5809 90.0609 6.57998 90.0001 6.57998C89.9392 6.57998 89.8777 6.5809 89.8175 6.5818L89.8169 6.58181C89.7561 6.58271 89.6966 6.5836 89.6382 6.5836H89.4882V6.7336V26.5614V26.7114H89.6382C89.7013 26.7114 89.7648 26.7086 89.8244 26.7059L89.8259 26.7058C89.8871 26.7031 89.9443 26.7005 90.0001 26.7005C90.0773 26.7005 90.1539 26.7036 90.2332 26.7068C90.2737 26.7084 90.3149 26.71 90.3573 26.7113Z" fill="#C44F10" stroke="#C44F10" stroke-width="0.3"/>
<path d="M105.199 62.9323L105.35 62.9563L121.621 12.8803L121.664 12.7471L121.535 12.6948C121.44 12.6566 121.343 12.6167 121.246 12.5764C121.118 12.5237 120.989 12.4703 120.861 12.4195L120.712 12.3605L120.663 12.5126L104.377 62.6357L104.331 62.7772L104.473 62.8243C104.587 62.8625 104.703 62.8998 104.817 62.9368L104.818 62.9369C104.933 62.974 105.047 63.0109 105.16 63.0486L105.199 62.9323Z" fill="#C44F10" stroke="#C44F10" stroke-width="0.3"/>
<path d="M118.381 70.0888L118.503 70.1808L118.593 70.0573L147.839 29.801L147.917 29.694L147.82 29.6035C147.643 29.4372 147.465 29.2702 147.287 29.1067L147.163 28.9929L147.065 29.129L117.772 69.4504L117.683 69.5721L117.805 69.6601C117.999 69.8001 118.189 69.9438 118.381 70.0886L118.381 70.0888Z" fill="#C44F10" stroke="#C44F10" stroke-width="0.3"/>
<path d="M128.707 80.862L128.795 80.9883L128.919 80.898L165.669 54.1957L165.771 54.1214L165.716 54.0081C165.661 53.8975 165.607 53.7878 165.553 53.6784L165.551 53.6743C165.497 53.5662 165.443 53.4583 165.39 53.3496L165.311 53.1897L165.167 53.2944L128.327 80.062L128.205 80.1499L128.293 80.2711C128.433 80.465 128.57 80.6627 128.707 80.862Z" fill="#C44F10" stroke="#C44F10" stroke-width="0.3"/>
<path d="M135.142 94.2502L135.186 94.3977L135.332 94.3502L173.551 81.9325L173.666 81.895L173.654 81.7744C173.631 81.5503 173.605 81.3291 173.579 81.1069L173.571 81.0378L173.549 80.8561L173.375 80.9126L135.029 93.3701L134.888 93.416L134.933 93.5575C135.005 93.7879 135.073 94.0185 135.142 94.2502Z" fill="#C44F10" stroke="#C44F10" stroke-width="0.3"/>
<path d="M137.064 108.9L137.059 109.055H137.214H171.992H172.113L172.139 108.937C172.166 108.816 172.192 108.695 172.219 108.575C172.245 108.454 172.271 108.335 172.298 108.214L172.339 108.031H172.152H137.225H137.075V108.181C137.075 108.422 137.071 108.663 137.064 108.9Z" fill="#C44F10" stroke="#C44F10" stroke-width="0.3"/>
<path d="M134.38 123.339L134.33 123.484L134.476 123.531L162.759 132.721L162.875 132.759L162.936 132.654C163.027 132.495 163.116 132.335 163.205 132.176C163.236 132.12 163.267 132.063 163.298 132.008L163.388 131.848L163.214 131.792L134.807 122.562L134.666 122.516L134.619 122.657C134.568 122.808 134.515 122.957 134.462 123.108C134.435 123.185 134.408 123.261 134.38 123.339Z" fill="#C44F10" stroke="#C44F10" stroke-width="0.3"/>
<path d="M127.487 136.412L148.089 151.381L148.191 151.455L148.281 151.368C148.459 151.197 148.633 151.026 148.808 150.852L148.932 150.728L148.79 150.624L128.058 135.562L127.937 135.474L127.849 135.594C127.705 135.788 127.561 135.979 127.413 136.17L127.226 136.412H127.487Z" fill="#C44F10" stroke="#C44F10" stroke-width="0.3"/>
<path d="M117.054 146.141L116.867 145.884V146.346V146.35V146.635L116.984 146.555L130.059 164.55L130.136 164.657L130.252 164.594C130.36 164.536 130.466 164.475 130.572 164.416L130.572 164.416C130.678 164.356 130.783 164.297 130.889 164.24L131.039 164.158L130.938 164.02L117.728 145.842L117.64 145.721L117.519 145.808C117.364 145.92 117.21 146.032 117.054 146.141Z" fill="#C44F10" stroke="#C44F10" stroke-width="0.3"/>
<path d="M103.935 152.604L103.792 152.649L103.838 152.793L110.159 172.252L110.202 172.384L110.338 172.351C110.415 172.332 110.492 172.313 110.57 172.295C110.728 172.257 110.887 172.218 111.045 172.177L111.199 172.136L111.15 171.985L104.811 152.476L104.764 152.332L104.621 152.38C104.393 152.456 104.162 152.531 103.935 152.604Z" fill="#C44F10" stroke="#C44F10" stroke-width="0.3"/>
<mask id="path-22-outside-1_226_4479" maskUnits="userSpaceOnUse" x="44.4779" y="28.2606" width="91" height="125" fill="black">
<rect fill="white" x="44.4779" y="28.2606" width="91" height="125"/>
<path d="M125.339 134.666C125.487 134.475 125.632 134.283 125.777 134.091C128.364 130.599 130.455 126.717 131.942 122.553C132.022 122.325 132.105 122.1 132.181 121.869C133.567 117.78 134.37 113.424 134.497 108.905C134.504 108.666 134.508 108.423 134.508 108.181C134.508 107.997 134.515 107.812 134.515 107.627C134.515 103.26 133.878 99.0378 132.702 95.0469C132.633 94.8154 132.565 94.5838 132.492 94.3522C131.143 90.0393 129.153 86.0086 126.634 82.3687C126.497 82.1697 126.359 81.9707 126.218 81.7753C123.602 78.1209 120.447 74.879 116.872 72.1617C116.681 72.017 116.489 71.8723 116.294 71.7276C112.69 69.079 108.677 66.9624 104.364 65.4861C104.136 65.4065 103.908 65.3342 103.677 65.2582C102.479 64.871 101.264 64.5309 100.026 64.2451C99.1324 64.0389 98.2278 63.8616 97.3124 63.7096V56.3972C98.2966 55.8219 99.2048 55.1381 100.026 54.3565C102.812 51.7044 104.556 47.9631 104.556 43.8203C104.556 35.9145 98.2206 29.4632 90.3582 29.2715C90.2388 29.2715 90.1194 29.2606 89.9964 29.2606C89.8734 29.2606 89.754 29.2678 89.6346 29.2715C81.7758 29.4632 75.4367 35.9145 75.4367 43.8203C75.4367 47.9631 77.1807 51.7044 79.9667 54.3565C80.7881 55.1381 81.6962 55.8219 82.6804 56.3972V63.7096C81.765 63.8616 80.8604 64.0389 79.9667 64.2451C78.7293 64.5309 77.5099 64.871 76.3123 65.2582C76.0844 65.3342 75.8528 65.4065 75.6249 65.4861C71.312 66.9588 67.2994 69.079 63.6956 71.7276C63.5002 71.8687 63.3085 72.0134 63.1167 72.1617C59.5419 74.879 56.3868 78.1209 53.7709 81.7753C53.6298 81.9707 53.4923 82.1697 53.3548 82.3687C50.8365 86.0086 48.8465 90.0393 47.4969 94.3522C47.4245 94.5838 47.3558 94.8154 47.2907 95.0469C46.1111 99.0378 45.4779 103.26 45.4779 107.627C45.4779 107.812 45.4816 107.997 45.4852 108.181C45.4852 108.423 45.4924 108.666 45.496 108.905C45.6227 113.424 46.4295 117.78 47.8117 121.869C47.8877 122.097 47.9709 122.325 48.0505 122.553C49.5376 126.717 51.6253 130.599 54.2159 134.091C54.3607 134.286 54.5054 134.478 54.6537 134.666C57.3022 138.122 60.4465 141.179 63.9815 143.734C64.1769 143.875 64.3722 144.016 64.5712 144.153C68.099 146.617 71.9958 148.582 76.164 149.946C76.3919 150.022 76.6235 150.098 76.8515 150.167C80.8966 151.419 85.1878 152.106 89.6346 152.142C89.754 152.142 89.877 152.146 89.9964 152.146C90.1158 152.146 90.2388 152.142 90.3582 152.142C94.8014 152.106 99.0926 151.419 103.141 150.167C103.373 150.094 103.601 150.018 103.829 149.946C107.997 148.582 111.894 146.617 115.422 144.153C115.621 144.016 115.816 143.875 116.011 143.734C119.543 141.183 122.687 138.122 125.339 134.666ZM90.3618 151.419C90.2424 151.419 90.1194 151.422 90 151.422C89.8806 151.422 89.7576 151.419 89.6382 151.419C85.271 151.382 81.0558 150.706 77.0794 149.479C76.8478 149.407 76.6199 149.331 76.3919 149.259C72.2961 147.916 68.4681 145.988 65.0018 143.571C64.8028 143.433 64.6074 143.292 64.412 143.151C60.9422 140.644 57.8522 137.641 55.2471 134.247C55.0988 134.055 54.954 133.863 54.8093 133.671C52.2657 130.241 50.2105 126.428 48.7488 122.335C48.6692 122.108 48.586 121.883 48.51 121.652C47.1496 117.632 46.3572 113.355 46.2305 108.912C46.2233 108.673 46.2197 108.431 46.216 108.188C46.216 108.004 46.2088 107.819 46.2088 107.635C46.2088 103.343 46.8311 99.197 47.9854 95.2785C48.0541 95.0469 48.1228 94.8154 48.1916 94.5838C49.5195 90.3433 51.4733 86.3813 53.9482 82.8029C54.0857 82.6039 54.2232 82.4049 54.3643 82.2095C56.9332 78.6166 60.034 75.429 63.5509 72.7551C63.7427 72.6104 63.9344 72.4657 64.1298 72.3209C67.672 69.7194 71.6195 67.6354 75.8564 66.1845C76.0844 66.1049 76.3123 66.0325 76.5439 65.9565C77.6692 65.5911 78.8125 65.2727 79.9739 64.9977C81.0377 64.748 82.1159 64.5382 83.205 64.3645C83.708 64.2849 84.2109 64.2161 84.7174 64.1546C84.797 64.1438 84.8803 64.1365 84.9599 64.1257C86.0417 64.0027 87.1272 63.9158 88.2126 63.8724C88.2524 63.8724 88.2922 63.8724 88.332 63.8688C88.7662 63.8507 89.204 63.8471 89.6418 63.8435C89.8842 63.8435 90.123 63.8435 90.3655 63.8435C90.8033 63.8435 91.2374 63.8543 91.6753 63.8688C91.7151 63.8688 91.7549 63.8688 91.7947 63.8724C92.8837 63.9158 93.9692 64.0027 95.0474 64.1257C95.127 64.1365 95.2102 64.1438 95.2898 64.1546C95.7964 64.2161 96.2993 64.2849 96.8023 64.3645C97.8913 64.5345 98.9696 64.748 100.033 64.9977C101.195 65.2727 102.338 65.5911 103.463 65.9565C103.691 66.0325 103.923 66.1049 104.151 66.1845C108.388 67.6354 112.335 69.7194 115.877 72.3209C116.073 72.4621 116.265 72.6068 116.456 72.7551C119.97 75.4254 123.07 78.6166 125.643 82.2095C125.784 82.4049 125.922 82.6039 126.059 82.8029C128.534 86.3813 130.488 90.3469 131.816 94.5838C131.888 94.8154 131.957 95.0469 132.022 95.2785C133.176 99.2006 133.798 103.347 133.798 107.635C133.798 107.819 133.795 108.004 133.791 108.188C133.791 108.431 133.784 108.673 133.777 108.912C133.65 113.355 132.858 117.632 131.497 121.652C131.421 121.88 131.338 122.108 131.258 122.335C129.797 126.428 127.742 130.241 125.198 133.671C125.053 133.867 124.909 134.058 124.76 134.247C122.155 137.641 119.065 140.644 115.592 143.151C115.396 143.292 115.201 143.433 115.002 143.571C111.536 145.988 107.708 147.92 103.612 149.259C103.384 149.335 103.152 149.411 102.924 149.479C98.9479 150.709 94.7326 151.386 90.3655 151.422L90.3618 151.419ZM83.4076 63.5974V52.3846H96.5924V63.5974C96.5345 63.5902 96.4766 63.583 96.4187 63.5757C95.9882 63.5142 95.554 63.4563 95.1198 63.4057C95.0257 63.3948 94.9353 63.384 94.8412 63.3731C94.3346 63.3188 93.8281 63.2718 93.3179 63.232C93.2962 63.232 93.2745 63.232 93.2492 63.2284C92.7788 63.1958 92.3048 63.1705 91.8308 63.1488C91.715 63.1452 91.5993 63.1379 91.4835 63.1343C91.1072 63.1234 90.7309 63.1162 90.3546 63.1126C90.2352 63.1126 90.1122 63.1054 89.9928 63.1054C89.8734 63.1054 89.7504 63.1126 89.631 63.1126C89.2547 63.1126 88.8784 63.1198 88.5057 63.1343C88.3899 63.1379 88.2741 63.1415 88.1584 63.1488C87.688 63.1669 87.214 63.1922 86.7436 63.2284C86.7219 63.2284 86.7002 63.2284 86.6749 63.232C86.1683 63.2682 85.6582 63.3188 85.1516 63.3731C85.0576 63.384 84.9671 63.3948 84.873 63.4057C84.4388 63.4563 84.0083 63.5106 83.5741 63.5721C83.5162 63.5793 83.4583 63.5866 83.4004 63.5938L83.4076 63.5974ZM89.6382 29.9987C89.7576 29.9987 89.8806 29.9879 90 29.9879C90.1194 29.9879 90.2424 29.9951 90.3618 29.9987C97.8226 30.1905 103.836 36.3161 103.836 43.8239C103.836 47.5072 102.385 50.8577 100.03 53.3398C99.2229 54.1901 98.3147 54.9354 97.3161 55.5578V52.0192C97.3161 51.8202 97.1532 51.6573 96.9542 51.6573H83.0458C82.8468 51.6573 82.684 51.8202 82.684 52.0192V55.5578C81.6854 54.9354 80.7772 54.1865 79.9703 53.3398C77.6149 50.8577 76.164 47.5072 76.164 43.8239C76.164 36.3161 82.1738 30.1905 89.6382 29.9987Z"/>
</mask>
<path d="M125.339 134.666C125.487 134.475 125.632 134.283 125.777 134.091C128.364 130.599 130.455 126.717 131.942 122.553C132.022 122.325 132.105 122.1 132.181 121.869C133.567 117.78 134.37 113.424 134.497 108.905C134.504 108.666 134.508 108.423 134.508 108.181C134.508 107.997 134.515 107.812 134.515 107.627C134.515 103.26 133.878 99.0378 132.702 95.0469C132.633 94.8154 132.565 94.5838 132.492 94.3522C131.143 90.0393 129.153 86.0086 126.634 82.3687C126.497 82.1697 126.359 81.9707 126.218 81.7753C123.602 78.1209 120.447 74.879 116.872 72.1617C116.681 72.017 116.489 71.8723 116.294 71.7276C112.69 69.079 108.677 66.9624 104.364 65.4861C104.136 65.4065 103.908 65.3342 103.677 65.2582C102.479 64.871 101.264 64.5309 100.026 64.2451C99.1324 64.0389 98.2278 63.8616 97.3124 63.7096V56.3972C98.2966 55.8219 99.2048 55.1381 100.026 54.3565C102.812 51.7044 104.556 47.9631 104.556 43.8203C104.556 35.9145 98.2206 29.4632 90.3582 29.2715C90.2388 29.2715 90.1194 29.2606 89.9964 29.2606C89.8734 29.2606 89.754 29.2678 89.6346 29.2715C81.7758 29.4632 75.4367 35.9145 75.4367 43.8203C75.4367 47.9631 77.1807 51.7044 79.9667 54.3565C80.7881 55.1381 81.6962 55.8219 82.6804 56.3972V63.7096C81.765 63.8616 80.8604 64.0389 79.9667 64.2451C78.7293 64.5309 77.5099 64.871 76.3123 65.2582C76.0844 65.3342 75.8528 65.4065 75.6249 65.4861C71.312 66.9588 67.2994 69.079 63.6956 71.7276C63.5002 71.8687 63.3085 72.0134 63.1167 72.1617C59.5419 74.879 56.3868 78.1209 53.7709 81.7753C53.6298 81.9707 53.4923 82.1697 53.3548 82.3687C50.8365 86.0086 48.8465 90.0393 47.4969 94.3522C47.4245 94.5838 47.3558 94.8154 47.2907 95.0469C46.1111 99.0378 45.4779 103.26 45.4779 107.627C45.4779 107.812 45.4816 107.997 45.4852 108.181C45.4852 108.423 45.4924 108.666 45.496 108.905C45.6227 113.424 46.4295 117.78 47.8117 121.869C47.8877 122.097 47.9709 122.325 48.0505 122.553C49.5376 126.717 51.6253 130.599 54.2159 134.091C54.3607 134.286 54.5054 134.478 54.6537 134.666C57.3022 138.122 60.4465 141.179 63.9815 143.734C64.1769 143.875 64.3722 144.016 64.5712 144.153C68.099 146.617 71.9958 148.582 76.164 149.946C76.3919 150.022 76.6235 150.098 76.8515 150.167C80.8966 151.419 85.1878 152.106 89.6346 152.142C89.754 152.142 89.877 152.146 89.9964 152.146C90.1158 152.146 90.2388 152.142 90.3582 152.142C94.8014 152.106 99.0926 151.419 103.141 150.167C103.373 150.094 103.601 150.018 103.829 149.946C107.997 148.582 111.894 146.617 115.422 144.153C115.621 144.016 115.816 143.875 116.011 143.734C119.543 141.183 122.687 138.122 125.339 134.666ZM90.3618 151.419C90.2424 151.419 90.1194 151.422 90 151.422C89.8806 151.422 89.7576 151.419 89.6382 151.419C85.271 151.382 81.0558 150.706 77.0794 149.479C76.8478 149.407 76.6199 149.331 76.3919 149.259C72.2961 147.916 68.4681 145.988 65.0018 143.571C64.8028 143.433 64.6074 143.292 64.412 143.151C60.9422 140.644 57.8522 137.641 55.2471 134.247C55.0988 134.055 54.954 133.863 54.8093 133.671C52.2657 130.241 50.2105 126.428 48.7488 122.335C48.6692 122.108 48.586 121.883 48.51 121.652C47.1496 117.632 46.3572 113.355 46.2305 108.912C46.2233 108.673 46.2197 108.431 46.216 108.188C46.216 108.004 46.2088 107.819 46.2088 107.635C46.2088 103.343 46.8311 99.197 47.9854 95.2785C48.0541 95.0469 48.1228 94.8154 48.1916 94.5838C49.5195 90.3433 51.4733 86.3813 53.9482 82.8029C54.0857 82.6039 54.2232 82.4049 54.3643 82.2095C56.9332 78.6166 60.034 75.429 63.5509 72.7551C63.7427 72.6104 63.9344 72.4657 64.1298 72.3209C67.672 69.7194 71.6195 67.6354 75.8564 66.1845C76.0844 66.1049 76.3123 66.0325 76.5439 65.9565C77.6692 65.5911 78.8125 65.2727 79.9739 64.9977C81.0377 64.748 82.1159 64.5382 83.205 64.3645C83.708 64.2849 84.2109 64.2161 84.7174 64.1546C84.797 64.1438 84.8803 64.1365 84.9599 64.1257C86.0417 64.0027 87.1272 63.9158 88.2126 63.8724C88.2524 63.8724 88.2922 63.8724 88.332 63.8688C88.7662 63.8507 89.204 63.8471 89.6418 63.8435C89.8842 63.8435 90.123 63.8435 90.3655 63.8435C90.8033 63.8435 91.2374 63.8543 91.6753 63.8688C91.7151 63.8688 91.7549 63.8688 91.7947 63.8724C92.8837 63.9158 93.9692 64.0027 95.0474 64.1257C95.127 64.1365 95.2102 64.1438 95.2898 64.1546C95.7964 64.2161 96.2993 64.2849 96.8023 64.3645C97.8913 64.5345 98.9696 64.748 100.033 64.9977C101.195 65.2727 102.338 65.5911 103.463 65.9565C103.691 66.0325 103.923 66.1049 104.151 66.1845C108.388 67.6354 112.335 69.7194 115.877 72.3209C116.073 72.4621 116.265 72.6068 116.456 72.7551C119.97 75.4254 123.07 78.6166 125.643 82.2095C125.784 82.4049 125.922 82.6039 126.059 82.8029C128.534 86.3813 130.488 90.3469 131.816 94.5838C131.888 94.8154 131.957 95.0469 132.022 95.2785C133.176 99.2006 133.798 103.347 133.798 107.635C133.798 107.819 133.795 108.004 133.791 108.188C133.791 108.431 133.784 108.673 133.777 108.912C133.65 113.355 132.858 117.632 131.497 121.652C131.421 121.88 131.338 122.108 131.258 122.335C129.797 126.428 127.742 130.241 125.198 133.671C125.053 133.867 124.909 134.058 124.76 134.247C122.155 137.641 119.065 140.644 115.592 143.151C115.396 143.292 115.201 143.433 115.002 143.571C111.536 145.988 107.708 147.92 103.612 149.259C103.384 149.335 103.152 149.411 102.924 149.479C98.9479 150.709 94.7326 151.386 90.3655 151.422L90.3618 151.419ZM83.4076 63.5974V52.3846H96.5924V63.5974C96.5345 63.5902 96.4766 63.583 96.4187 63.5757C95.9882 63.5142 95.554 63.4563 95.1198 63.4057C95.0257 63.3948 94.9353 63.384 94.8412 63.3731C94.3346 63.3188 93.8281 63.2718 93.3179 63.232C93.2962 63.232 93.2745 63.232 93.2492 63.2284C92.7788 63.1958 92.3048 63.1705 91.8308 63.1488C91.715 63.1452 91.5993 63.1379 91.4835 63.1343C91.1072 63.1234 90.7309 63.1162 90.3546 63.1126C90.2352 63.1126 90.1122 63.1054 89.9928 63.1054C89.8734 63.1054 89.7504 63.1126 89.631 63.1126C89.2547 63.1126 88.8784 63.1198 88.5057 63.1343C88.3899 63.1379 88.2741 63.1415 88.1584 63.1488C87.688 63.1669 87.214 63.1922 86.7436 63.2284C86.7219 63.2284 86.7002 63.2284 86.6749 63.232C86.1683 63.2682 85.6582 63.3188 85.1516 63.3731C85.0576 63.384 84.9671 63.3948 84.873 63.4057C84.4388 63.4563 84.0083 63.5106 83.5741 63.5721C83.5162 63.5793 83.4583 63.5866 83.4004 63.5938L83.4076 63.5974ZM89.6382 29.9987C89.7576 29.9987 89.8806 29.9879 90 29.9879C90.1194 29.9879 90.2424 29.9951 90.3618 29.9987C97.8226 30.1905 103.836 36.3161 103.836 43.8239C103.836 47.5072 102.385 50.8577 100.03 53.3398C99.2229 54.1901 98.3147 54.9354 97.3161 55.5578V52.0192C97.3161 51.8202 97.1532 51.6573 96.9542 51.6573H83.0458C82.8468 51.6573 82.684 51.8202 82.684 52.0192V55.5578C81.6854 54.9354 80.7772 54.1865 79.9703 53.3398C77.6149 50.8577 76.164 47.5072 76.164 43.8239C76.164 36.3161 82.1738 30.1905 89.6382 29.9987Z" fill="#C44F10"/>
<path d="M125.339 134.666C125.487 134.475 125.632 134.283 125.777 134.091C128.364 130.599 130.455 126.717 131.942 122.553C132.022 122.325 132.105 122.1 132.181 121.869C133.567 117.78 134.37 113.424 134.497 108.905C134.504 108.666 134.508 108.423 134.508 108.181C134.508 107.997 134.515 107.812 134.515 107.627C134.515 103.26 133.878 99.0378 132.702 95.0469C132.633 94.8154 132.565 94.5838 132.492 94.3522C131.143 90.0393 129.153 86.0086 126.634 82.3687C126.497 82.1697 126.359 81.9707 126.218 81.7753C123.602 78.1209 120.447 74.879 116.872 72.1617C116.681 72.017 116.489 71.8723 116.294 71.7276C112.69 69.079 108.677 66.9624 104.364 65.4861C104.136 65.4065 103.908 65.3342 103.677 65.2582C102.479 64.871 101.264 64.5309 100.026 64.2451C99.1324 64.0389 98.2278 63.8616 97.3124 63.7096V56.3972C98.2966 55.8219 99.2048 55.1381 100.026 54.3565C102.812 51.7044 104.556 47.9631 104.556 43.8203C104.556 35.9145 98.2206 29.4632 90.3582 29.2715C90.2388 29.2715 90.1194 29.2606 89.9964 29.2606C89.8734 29.2606 89.754 29.2678 89.6346 29.2715C81.7758 29.4632 75.4367 35.9145 75.4367 43.8203C75.4367 47.9631 77.1807 51.7044 79.9667 54.3565C80.7881 55.1381 81.6962 55.8219 82.6804 56.3972V63.7096C81.765 63.8616 80.8604 64.0389 79.9667 64.2451C78.7293 64.5309 77.5099 64.871 76.3123 65.2582C76.0844 65.3342 75.8528 65.4065 75.6249 65.4861C71.312 66.9588 67.2994 69.079 63.6956 71.7276C63.5002 71.8687 63.3085 72.0134 63.1167 72.1617C59.5419 74.879 56.3868 78.1209 53.7709 81.7753C53.6298 81.9707 53.4923 82.1697 53.3548 82.3687C50.8365 86.0086 48.8465 90.0393 47.4969 94.3522C47.4245 94.5838 47.3558 94.8154 47.2907 95.0469C46.1111 99.0378 45.4779 103.26 45.4779 107.627C45.4779 107.812 45.4816 107.997 45.4852 108.181C45.4852 108.423 45.4924 108.666 45.496 108.905C45.6227 113.424 46.4295 117.78 47.8117 121.869C47.8877 122.097 47.9709 122.325 48.0505 122.553C49.5376 126.717 51.6253 130.599 54.2159 134.091C54.3607 134.286 54.5054 134.478 54.6537 134.666C57.3022 138.122 60.4465 141.179 63.9815 143.734C64.1769 143.875 64.3722 144.016 64.5712 144.153C68.099 146.617 71.9958 148.582 76.164 149.946C76.3919 150.022 76.6235 150.098 76.8515 150.167C80.8966 151.419 85.1878 152.106 89.6346 152.142C89.754 152.142 89.877 152.146 89.9964 152.146C90.1158 152.146 90.2388 152.142 90.3582 152.142C94.8014 152.106 99.0926 151.419 103.141 150.167C103.373 150.094 103.601 150.018 103.829 149.946C107.997 148.582 111.894 146.617 115.422 144.153C115.621 144.016 115.816 143.875 116.011 143.734C119.543 141.183 122.687 138.122 125.339 134.666ZM90.3618 151.419C90.2424 151.419 90.1194 151.422 90 151.422C89.8806 151.422 89.7576 151.419 89.6382 151.419C85.271 151.382 81.0558 150.706 77.0794 149.479C76.8478 149.407 76.6199 149.331 76.3919 149.259C72.2961 147.916 68.4681 145.988 65.0018 143.571C64.8028 143.433 64.6074 143.292 64.412 143.151C60.9422 140.644 57.8522 137.641 55.2471 134.247C55.0988 134.055 54.954 133.863 54.8093 133.671C52.2657 130.241 50.2105 126.428 48.7488 122.335C48.6692 122.108 48.586 121.883 48.51 121.652C47.1496 117.632 46.3572 113.355 46.2305 108.912C46.2233 108.673 46.2197 108.431 46.216 108.188C46.216 108.004 46.2088 107.819 46.2088 107.635C46.2088 103.343 46.8311 99.197 47.9854 95.2785C48.0541 95.0469 48.1228 94.8154 48.1916 94.5838C49.5195 90.3433 51.4733 86.3813 53.9482 82.8029C54.0857 82.6039 54.2232 82.4049 54.3643 82.2095C56.9332 78.6166 60.034 75.429 63.5509 72.7551C63.7427 72.6104 63.9344 72.4657 64.1298 72.3209C67.672 69.7194 71.6195 67.6354 75.8564 66.1845C76.0844 66.1049 76.3123 66.0325 76.5439 65.9565C77.6692 65.5911 78.8125 65.2727 79.9739 64.9977C81.0377 64.748 82.1159 64.5382 83.205 64.3645C83.708 64.2849 84.2109 64.2161 84.7174 64.1546C84.797 64.1438 84.8803 64.1365 84.9599 64.1257C86.0417 64.0027 87.1272 63.9158 88.2126 63.8724C88.2524 63.8724 88.2922 63.8724 88.332 63.8688C88.7662 63.8507 89.204 63.8471 89.6418 63.8435C89.8842 63.8435 90.123 63.8435 90.3655 63.8435C90.8033 63.8435 91.2374 63.8543 91.6753 63.8688C91.7151 63.8688 91.7549 63.8688 91.7947 63.8724C92.8837 63.9158 93.9692 64.0027 95.0474 64.1257C95.127 64.1365 95.2102 64.1438 95.2898 64.1546C95.7964 64.2161 96.2993 64.2849 96.8023 64.3645C97.8913 64.5345 98.9696 64.748 100.033 64.9977C101.195 65.2727 102.338 65.5911 103.463 65.9565C103.691 66.0325 103.923 66.1049 104.151 66.1845C108.388 67.6354 112.335 69.7194 115.877 72.3209C116.073 72.4621 116.265 72.6068 116.456 72.7551C119.97 75.4254 123.07 78.6166 125.643 82.2095C125.784 82.4049 125.922 82.6039 126.059 82.8029C128.534 86.3813 130.488 90.3469 131.816 94.5838C131.888 94.8154 131.957 95.0469 132.022 95.2785C133.176 99.2006 133.798 103.347 133.798 107.635C133.798 107.819 133.795 108.004 133.791 108.188C133.791 108.431 133.784 108.673 133.777 108.912C133.65 113.355 132.858 117.632 131.497 121.652C131.421 121.88 131.338 122.108 131.258 122.335C129.797 126.428 127.742 130.241 125.198 133.671C125.053 133.867 124.909 134.058 124.76 134.247C122.155 137.641 119.065 140.644 115.592 143.151C115.396 143.292 115.201 143.433 115.002 143.571C111.536 145.988 107.708 147.92 103.612 149.259C103.384 149.335 103.152 149.411 102.924 149.479C98.9479 150.709 94.7326 151.386 90.3655 151.422L90.3618 151.419ZM83.4076 63.5974V52.3846H96.5924V63.5974C96.5345 63.5902 96.4766 63.583 96.4187 63.5757C95.9882 63.5142 95.554 63.4563 95.1198 63.4057C95.0257 63.3948 94.9353 63.384 94.8412 63.3731C94.3346 63.3188 93.8281 63.2718 93.3179 63.232C93.2962 63.232 93.2745 63.232 93.2492 63.2284C92.7788 63.1958 92.3048 63.1705 91.8308 63.1488C91.715 63.1452 91.5993 63.1379 91.4835 63.1343C91.1072 63.1234 90.7309 63.1162 90.3546 63.1126C90.2352 63.1126 90.1122 63.1054 89.9928 63.1054C89.8734 63.1054 89.7504 63.1126 89.631 63.1126C89.2547 63.1126 88.8784 63.1198 88.5057 63.1343C88.3899 63.1379 88.2741 63.1415 88.1584 63.1488C87.688 63.1669 87.214 63.1922 86.7436 63.2284C86.7219 63.2284 86.7002 63.2284 86.6749 63.232C86.1683 63.2682 85.6582 63.3188 85.1516 63.3731C85.0576 63.384 84.9671 63.3948 84.873 63.4057C84.4388 63.4563 84.0083 63.5106 83.5741 63.5721C83.5162 63.5793 83.4583 63.5866 83.4004 63.5938L83.4076 63.5974ZM89.6382 29.9987C89.7576 29.9987 89.8806 29.9879 90 29.9879C90.1194 29.9879 90.2424 29.9951 90.3618 29.9987C97.8226 30.1905 103.836 36.3161 103.836 43.8239C103.836 47.5072 102.385 50.8577 100.03 53.3398C99.2229 54.1901 98.3147 54.9354 97.3161 55.5578V52.0192C97.3161 51.8202 97.1532 51.6573 96.9542 51.6573H83.0458C82.8468 51.6573 82.684 51.8202 82.684 52.0192V55.5578C81.6854 54.9354 80.7772 54.1865 79.9703 53.3398C77.6149 50.8577 76.164 47.5072 76.164 43.8239C76.164 36.3161 82.1738 30.1905 89.6382 29.9987Z" stroke="#C44F10" stroke-width="0.6" mask="url(#path-22-outside-1_226_4479)"/>
<mask id="path-23-outside-2_226_4479" maskUnits="userSpaceOnUse" x="67.7877" y="85.4052" width="44" height="44" fill="black">
<rect fill="white" x="67.7877" y="85.4052" width="44" height="44"/>
<path d="M104.777 97.359L111.17 86.9566C111.257 86.8155 111.235 86.631 111.12 86.5116C111 86.3922 110.816 86.3705 110.674 86.4609L103.123 91.0995L101.51 92.0908L94.2876 96.5268L93.336 97.1093L90.3655 98.9365L89.6418 99.3815L87.7784 100.525L87.4528 100.724L87.1452 100.912L85.6003 101.86L84.9816 102.24L84.8332 102.33C84.8115 102.345 84.7934 102.367 84.7753 102.388C84.7572 102.406 84.7319 102.421 84.7174 102.446L83.954 103.687L83.5741 104.306L83.1073 105.066L82.6768 105.768L82.286 106.401L81.2005 108.167L80.7555 108.89L79.0188 111.716L78.4362 112.668L74.1957 119.568L73.2043 121.181L68.8407 128.28C68.7539 128.421 68.7756 128.606 68.8914 128.725C68.9601 128.794 69.0542 128.83 69.1483 128.83C69.2134 128.83 69.2785 128.812 69.3364 128.776L79.2865 122.661L80.9002 121.67L86.465 118.251L87.4166 117.668L89.6454 116.297L90.3691 115.852L91.7368 115.012L92.3699 114.621L92.5581 114.506L93.4916 113.93L94.1103 113.55L95.1777 112.896C95.1994 112.881 95.2175 112.859 95.2356 112.838C95.2501 112.823 95.2645 112.812 95.2754 112.798C95.279 112.791 95.2862 112.787 95.2898 112.78L95.6553 112.186L96.3934 110.982L96.7842 110.348L96.8999 110.16L97.6815 108.887L98.1265 108.163L99.5847 105.789L100.167 104.838L103.782 98.9546L104.773 97.3409L104.777 97.359ZM96.075 110.138L95.6842 110.772L95.0655 111.778L94.9099 112.031L93.8426 110.963L87.5758 104.697L85.593 102.714L86.0164 102.453L87.366 101.625L87.9702 101.252L87.9992 101.234L89.631 100.232L90.3546 99.7868L92.9814 98.1731L93.933 97.5905L100.384 93.6286L101.998 92.6372L109.752 87.872L103.235 98.477L102.244 100.091L99.1034 105.203L98.5209 106.155L97.2762 108.181L96.8312 108.905L96.3717 109.654L96.075 110.138ZM92.1311 113.938L92.0226 114.003L91.498 114.325L90.3618 115.023L89.6382 115.468L87.7531 116.626L86.8015 117.208L82.0074 120.154L80.3937 121.145L70.241 127.383L74.7275 120.081L75.7189 118.468L79.4855 112.335L80.068 111.383L81.5949 108.901L82.04 108.177L82.9843 106.64L83.3751 106.006L83.6247 105.601L84.153 104.74L84.5329 104.121L85.0829 103.224L94.3962 112.537L93.6725 112.982L93.0538 113.362L92.1275 113.93L92.1311 113.938Z"/>
</mask>
<path d="M104.777 97.359L111.17 86.9566C111.257 86.8155 111.235 86.631 111.12 86.5116C111 86.3922 110.816 86.3705 110.674 86.4609L103.123 91.0995L101.51 92.0908L94.2876 96.5268L93.336 97.1093L90.3655 98.9365L89.6418 99.3815L87.7784 100.525L87.4528 100.724L87.1452 100.912L85.6003 101.86L84.9816 102.24L84.8332 102.33C84.8115 102.345 84.7934 102.367 84.7753 102.388C84.7572 102.406 84.7319 102.421 84.7174 102.446L83.954 103.687L83.5741 104.306L83.1073 105.066L82.6768 105.768L82.286 106.401L81.2005 108.167L80.7555 108.89L79.0188 111.716L78.4362 112.668L74.1957 119.568L73.2043 121.181L68.8407 128.28C68.7539 128.421 68.7756 128.606 68.8914 128.725C68.9601 128.794 69.0542 128.83 69.1483 128.83C69.2134 128.83 69.2785 128.812 69.3364 128.776L79.2865 122.661L80.9002 121.67L86.465 118.251L87.4166 117.668L89.6454 116.297L90.3691 115.852L91.7368 115.012L92.3699 114.621L92.5581 114.506L93.4916 113.93L94.1103 113.55L95.1777 112.896C95.1994 112.881 95.2175 112.859 95.2356 112.838C95.2501 112.823 95.2645 112.812 95.2754 112.798C95.279 112.791 95.2862 112.787 95.2898 112.78L95.6553 112.186L96.3934 110.982L96.7842 110.348L96.8999 110.16L97.6815 108.887L98.1265 108.163L99.5847 105.789L100.167 104.838L103.782 98.9546L104.773 97.3409L104.777 97.359ZM96.075 110.138L95.6842 110.772L95.0655 111.778L94.9099 112.031L93.8426 110.963L87.5758 104.697L85.593 102.714L86.0164 102.453L87.366 101.625L87.9702 101.252L87.9992 101.234L89.631 100.232L90.3546 99.7868L92.9814 98.1731L93.933 97.5905L100.384 93.6286L101.998 92.6372L109.752 87.872L103.235 98.477L102.244 100.091L99.1034 105.203L98.5209 106.155L97.2762 108.181L96.8312 108.905L96.3717 109.654L96.075 110.138ZM92.1311 113.938L92.0226 114.003L91.498 114.325L90.3618 115.023L89.6382 115.468L87.7531 116.626L86.8015 117.208L82.0074 120.154L80.3937 121.145L70.241 127.383L74.7275 120.081L75.7189 118.468L79.4855 112.335L80.068 111.383L81.5949 108.901L82.04 108.177L82.9843 106.64L83.3751 106.006L83.6247 105.601L84.153 104.74L84.5329 104.121L85.0829 103.224L94.3962 112.537L93.6725 112.982L93.0538 113.362L92.1275 113.93L92.1311 113.938Z" fill="#C44F10"/>
<path d="M104.777 97.359L111.17 86.9566C111.257 86.8155 111.235 86.631 111.12 86.5116C111 86.3922 110.816 86.3705 110.674 86.4609L103.123 91.0995L101.51 92.0908L94.2876 96.5268L93.336 97.1093L90.3655 98.9365L89.6418 99.3815L87.7784 100.525L87.4528 100.724L87.1452 100.912L85.6003 101.86L84.9816 102.24L84.8332 102.33C84.8115 102.345 84.7934 102.367 84.7753 102.388C84.7572 102.406 84.7319 102.421 84.7174 102.446L83.954 103.687L83.5741 104.306L83.1073 105.066L82.6768 105.768L82.286 106.401L81.2005 108.167L80.7555 108.89L79.0188 111.716L78.4362 112.668L74.1957 119.568L73.2043 121.181L68.8407 128.28C68.7539 128.421 68.7756 128.606 68.8914 128.725C68.9601 128.794 69.0542 128.83 69.1483 128.83C69.2134 128.83 69.2785 128.812 69.3364 128.776L79.2865 122.661L80.9002 121.67L86.465 118.251L87.4166 117.668L89.6454 116.297L90.3691 115.852L91.7368 115.012L92.3699 114.621L92.5581 114.506L93.4916 113.93L94.1103 113.55L95.1777 112.896C95.1994 112.881 95.2175 112.859 95.2356 112.838C95.2501 112.823 95.2645 112.812 95.2754 112.798C95.279 112.791 95.2862 112.787 95.2898 112.78L95.6553 112.186L96.3934 110.982L96.7842 110.348L96.8999 110.16L97.6815 108.887L98.1265 108.163L99.5847 105.789L100.167 104.838L103.782 98.9546L104.773 97.3409L104.777 97.359ZM96.075 110.138L95.6842 110.772L95.0655 111.778L94.9099 112.031L93.8426 110.963L87.5758 104.697L85.593 102.714L86.0164 102.453L87.366 101.625L87.9702 101.252L87.9992 101.234L89.631 100.232L90.3546 99.7868L92.9814 98.1731L93.933 97.5905L100.384 93.6286L101.998 92.6372L109.752 87.872L103.235 98.477L102.244 100.091L99.1034 105.203L98.5209 106.155L97.2762 108.181L96.8312 108.905L96.3717 109.654L96.075 110.138ZM92.1311 113.938L92.0226 114.003L91.498 114.325L90.3618 115.023L89.6382 115.468L87.7531 116.626L86.8015 117.208L82.0074 120.154L80.3937 121.145L70.241 127.383L74.7275 120.081L75.7189 118.468L79.4855 112.335L80.068 111.383L81.5949 108.901L82.04 108.177L82.9843 106.64L83.3751 106.006L83.6247 105.601L84.153 104.74L84.5329 104.121L85.0829 103.224L94.3962 112.537L93.6725 112.982L93.0538 113.362L92.1275 113.93L92.1311 113.938Z" stroke="#C44F10" stroke-width="0.6" mask="url(#path-23-outside-2_226_4479)"/>
<path d="M90.0001 76.6608C90.2819 76.6608 90.5119 76.4309 90.5119 76.149V67.7367C90.5119 67.4548 90.2819 67.2248 90.0001 67.2248C89.7182 67.2248 89.4882 67.4548 89.4882 67.7367V76.149C89.4882 76.4309 89.7182 76.6608 90.0001 76.6608Z" fill="#C44F10" stroke="#C44F10" stroke-width="0.3"/>
<path d="M90.0001 138.598C89.7182 138.598 89.4882 138.828 89.4882 139.109V147.522C89.4882 147.804 89.7182 148.034 90.0001 148.034C90.2819 148.034 90.5119 147.804 90.5119 147.522V139.109C90.5119 138.828 90.2819 138.598 90.0001 138.598Z" fill="#C44F10" stroke="#C44F10" stroke-width="0.3"/>
<path d="M121.482 108.139H129.894C130.176 108.139 130.406 107.909 130.406 107.627C130.406 107.346 130.176 107.116 129.894 107.116H121.482C121.2 107.116 120.97 107.346 120.97 107.627C120.97 107.909 121.2 108.139 121.482 108.139Z" fill="#C44F10" stroke="#C44F10" stroke-width="0.3"/>
<path d="M58.518 107.116H50.1057C49.8238 107.116 49.5938 107.346 49.5938 107.627C49.5938 107.909 49.8238 108.139 50.1057 108.139H58.518C58.7998 108.139 59.0298 107.909 59.0298 107.627C59.0298 107.346 58.7998 107.116 58.518 107.116Z" fill="#C44F10" stroke="#C44F10" stroke-width="0.3"/>
</svg>
